<?xml version="1.0" encoding="UTF-8" standalone="no"?>
<svg
   xmlns:dc="http://purl.org/dc/elements/1.1/"
   xmlns:cc="http://creativecommons.org/ns#"
   xmlns:rdf="http://www.w3.org/1999/02/22-rdf-syntax-ns#"
   xmlns:svg="http://www.w3.org/2000/svg"
   xmlns="http://www.w3.org/2000/svg"
   viewBox="0 0 2666.6667 2666.6667"
   height="2666.6667"
   width="2666.6667"
   xml:space="preserve"
   id="svg2"
   version="1.1"><metadata
     id="metadata8"><rdf:RDF><cc:Work
         rdf:about=""><dc:format>image/svg+xml</dc:format><dc:type
           rdf:resource="http://purl.org/dc/dcmitype/StillImage" /></cc:Work></rdf:RDF></metadata><defs
     id="defs6"><clipPath
       id="clipPath34"
       clipPathUnits="userSpaceOnUse"><path
         id="path32"
         d="M 0,2000 H 2000 V 0 H 0 Z" /></clipPath></defs><g
     transform="matrix(1.3333333,0,0,-1.3333333,0,2666.6667)"
     id="g10"><path
       id="path12"
       style="fill:#92ffcb;fill-opacity:1;fill-rule:nonzero;stroke:none"
       d="M 1956.725,643.359 H 43.275 v 713.282 h 1913.45 z" /><g
       transform="translate(855.9172,906.4722)"
       id="g14"><path
         id="path16"
         style="fill:#000000;fill-opacity:1;fill-rule:nonzero;stroke:none"
         d="m 0,0 -4.318,-10.174 h 8.636 z m -5.758,-13.609 -2.192,-5.169 h -4.024 l 10.109,22.9 h 3.959 l 10.01,-22.9 H 7.982 l -2.191,5.169 z" /></g><g
       transform="translate(901.1873,891.1943)"
       id="g18"><path
         id="path20"
         style="fill:#000000;fill-opacity:1;fill-rule:nonzero;stroke:none"
         d="m 0,0 v -3.5 h -13.773 v 22.9 h 3.86 V 0 Z" /></g><g
       transform="translate(935.0085,891.1943)"
       id="g22"><path
         id="path24"
         style="fill:#000000;fill-opacity:1;fill-rule:nonzero;stroke:none"
         d="m 0,0 v -3.5 h -13.773 v 22.9 h 3.86 V 0 Z" /></g><path
       id="path26"
       style="fill:#000000;fill-opacity:1;fill-rule:nonzero;stroke:none"
       d="m 955.056,910.594 h 3.86 v -22.9 h -3.86 z" /><g
       id="g28"><g
         clip-path="url(#clipPath34)"
         id="g30"><g
           transform="translate(1000.3289,898.9478)"
           id="g36"><path
             id="path38"
             style="fill:#000000;fill-opacity:1;fill-rule:nonzero;stroke:none"
             d="m 0,0 v -8.44 c -2.323,-1.767 -5.758,-2.977 -8.898,-2.977 -6.772,0 -12.039,5.07 -12.039,11.613 0,6.543 5.332,11.549 12.268,11.549 3.271,0 6.543,-1.244 8.8,-3.206 L -2.061,5.692 c -1.767,1.636 -4.22,2.618 -6.608,2.618 -4.679,0 -8.343,-3.566 -8.343,-8.114 0,-4.58 3.697,-8.146 8.375,-8.146 1.701,0 3.632,0.589 5.267,1.571 V 0 Z" /></g><g
           transform="translate(1031.1389,906.4722)"
           id="g40"><path
             id="path42"
             style="fill:#000000;fill-opacity:1;fill-rule:nonzero;stroke:none"
             d="m 0,0 -4.318,-10.174 h 8.636 z m -5.758,-13.609 -2.192,-5.169 h -4.024 l 10.109,22.9 h 3.959 l 10.01,-22.9 H 7.982 l -2.191,5.169 z" /></g><g
           transform="translate(1068.7537,907.1265)"
           id="g44"><path
             id="path46"
             style="fill:#000000;fill-opacity:1;fill-rule:nonzero;stroke:none"
             d="M 0,0 V -19.433 H -3.86 V 0 h -7.23 V 3.468 H 7.263 L 7.263,0 Z" /></g><g
           transform="translate(1096.3269,899.144)"
           id="g48"><path
             id="path50"
             style="fill:#000000;fill-opacity:1;fill-rule:nonzero;stroke:none"
             d="m 0,0 c 0,-4.547 3.763,-8.146 8.244,-8.146 4.482,0 8.146,3.599 8.146,8.146 0,4.547 -3.664,8.081 -8.146,8.081 C 3.729,8.081 0,4.547 0,0 m 20.349,0 c 0,-6.543 -5.3,-11.614 -12.137,-11.614 -6.838,0 -12.138,5.071 -12.138,11.614 0,6.576 5.3,11.548 12.138,11.548 6.837,0 12.137,-5.005 12.137,-11.548" /></g><g
           transform="translate(1146.4382,898.0645)"
           id="g52"><path
             id="path54"
             style="fill:#000000;fill-opacity:1;fill-rule:nonzero;stroke:none"
             d="M 0,0 C 3.533,0 5.562,1.505 5.562,4.613 5.562,7.623 3.533,9.062 0,9.062 H -5.431 V 0 Z M 1.047,-3.435 C 0.72,-3.468 0.36,-3.468 0,-3.468 h -5.431 v -6.903 h -3.86 V 12.53 H 0 c 5.856,0 9.226,-2.846 9.226,-7.819 0,-3.664 -1.702,-6.249 -4.745,-7.426 l 5.137,-7.656 H 5.234 Z" /></g><g
           transform="translate(996.3288,1076.9492)"
           id="g56"><path
             id="path58"
             style="fill:#000000;fill-opacity:1;fill-rule:nonzero;stroke:none"
             d="M 0,0 Z" /></g><g
           transform="translate(1065.674,1070.4114)"
           id="g60"><path
             id="path62"
             style="fill:#000000;fill-opacity:1;fill-rule:nonzero;stroke:none"
             d="m 0,0 c -0.049,-0.511 -0.114,-0.927 -0.187,-1.254 -0.088,-0.406 -0.197,-0.671 -0.272,-0.804 -0.002,0.002 -0.003,0.002 -0.005,0.004 -0.116,0.088 -0.282,0.265 -0.442,0.486 -0.243,0.331 -0.481,0.76 -0.652,1.141 -0.061,0.135 -0.11,0.258 -0.152,0.373 0.347,0.233 0.677,0.481 0.983,0.749 0.293,0.254 0.563,0.528 0.816,0.816 C 0.072,0.936 0.042,0.434 0,0 m -59.947,9.433 c 0.004,-0.005 0.006,-0.006 0.012,-0.012 0.042,-0.05 0.116,-0.163 0.191,-0.355 0.114,-0.286 0.23,-0.743 0.309,-1.378 0.058,-0.46 0.099,-1.015 0.117,-1.67 -0.632,0.736 -1.29,1.31 -1.985,1.738 0.053,0.114 0.117,0.238 0.19,0.365 0.207,0.364 0.487,0.75 0.747,1.005 0.129,0.128 0.252,0.222 0.339,0.27 0.035,0.019 0.06,0.03 0.08,0.037 m 16.908,-8.145 c -0.329,-1.589 -0.689,-2.676 -1.026,-3.335 -0.203,-0.402 -0.395,-0.637 -0.521,-0.743 -0.063,-0.054 -0.107,-0.077 -0.134,-0.087 -0.027,-0.011 -0.036,-0.011 -0.051,-0.012 -0.021,0 -0.07,0.005 -0.165,0.059 -0.082,0.046 -0.19,0.128 -0.308,0.246 -0.206,0.205 -0.436,0.515 -0.649,0.873 -0.321,0.537 -0.609,1.18 -0.816,1.747 -0.07,0.189 -0.129,0.368 -0.18,0.532 0.808,0.188 1.652,0.361 2.508,0.51 0.446,0.077 0.894,0.147 1.342,0.21 m 11.288,5.225 0.003,-0.001 c 0.021,-0.007 0.071,-0.029 0.145,-0.087 0.129,-0.098 0.326,-0.305 0.552,-0.64 0.34,-0.503 0.745,-1.289 1.189,-2.398 0.347,-0.865 0.719,-1.931 1.115,-3.216 -0.99,0.334 -1.891,0.678 -2.674,1.008 -0.684,0.287 -1.28,0.564 -1.769,0.81 v 0.002 c 0.071,0.713 0.286,2.004 0.63,3.039 0.169,0.517 0.377,0.971 0.565,1.232 0.092,0.131 0.176,0.209 0.219,0.238 z m 16.715,-13.058 -0.012,0.004 c -0.034,0.014 -0.103,0.054 -0.187,0.13 -0.149,0.131 -0.337,0.364 -0.514,0.648 -0.267,0.426 -0.513,0.962 -0.69,1.437 -0.089,0.238 -0.161,0.461 -0.212,0.644 -0.007,0.026 -0.012,0.049 -0.019,0.073 0.945,0.004 1.899,0.049 2.855,0.147 -0.255,-1.182 -0.53,-1.998 -0.781,-2.488 -0.158,-0.315 -0.305,-0.49 -0.385,-0.556 -0.029,-0.025 -0.045,-0.034 -0.055,-0.039 m 6.242,-0.465 c -2.027,-1.016 -3.847,-1.393 -5.48,-1.394 -1.442,0 -2.744,0.298 -3.901,0.751 -1.732,0.679 -3.133,1.716 -4.088,2.584 -0.478,0.433 -0.845,0.822 -1.088,1.098 -0.121,0.138 -0.212,0.248 -0.27,0.32 -0.029,0.036 -0.05,0.063 -0.063,0.08 l -0.012,0.016 -10e-4,0.001 -1.803,-1.337 c 0.038,-0.05 0.824,-1.106 2.27,-2.311 -1.692,-0.428 -3.127,-0.597 -4.325,-0.597 -2.379,0.004 -3.854,0.637 -4.752,1.223 -0.448,0.295 -0.75,0.583 -0.934,0.786 -0.092,0.101 -0.154,0.18 -0.188,0.228 l -0.033,0.046 -0.002,0.003 -0.131,-0.085 -0.536,-0.334 0.675,0.406 -1.923,-1.158 c 0.054,-0.09 0.445,-0.708 1.32,-1.394 -6.5,-2.44 -11.769,-3.3 -15.988,-3.3 -3.21,0 -5.82,0.493 -7.929,1.172 -1.901,0.613 -3.393,1.376 -4.553,2.082 -0.556,2.171 -1.15,4.219 -1.778,6.136 l -2.133,-0.698 v 0 c 2.117,-6.468 3.872,-14.501 4.994,-23.96 -0.075,0.075 -0.15,0.15 -0.229,0.219 -0.183,0.167 -0.358,0.334 -0.537,0.49 -0.034,0.028 -0.066,0.054 -0.1,0.082 -0.148,0.121 -0.295,0.242 -0.438,0.359 -0.172,0.145 -0.358,0.264 -0.527,0.391 -0.171,0.124 -0.335,0.245 -0.503,0.346 -0.331,0.211 -0.631,0.404 -0.913,0.55 -0.278,0.154 -0.517,0.289 -0.723,0.381 -0.407,0.195 -0.639,0.307 -0.639,0.307 0,0 0.215,-0.142 0.592,-0.391 0.192,-0.119 0.409,-0.286 0.658,-0.472 0.255,-0.178 0.522,-0.408 0.813,-0.655 0.149,-0.119 0.292,-0.258 0.44,-0.4 0.147,-0.145 0.308,-0.282 0.454,-0.444 0.148,-0.16 0.3,-0.323 0.455,-0.491 0.15,-0.171 0.295,-0.354 0.446,-0.535 0.155,-0.178 0.292,-0.378 0.438,-0.572 0.148,-0.193 0.29,-0.393 0.426,-0.602 0.021,-0.031 0.041,-0.065 0.062,-0.096 0.258,-0.38 0.501,-0.779 0.744,-1.177 0.253,-0.441 0.507,-0.878 0.741,-1.322 0.134,-0.243 0.262,-0.488 0.387,-0.73 l 10e-4,-10e-4 c 0.1,-0.194 0.199,-0.387 0.297,-0.575 0.191,-0.382 0.375,-0.75 0.552,-1.105 0.16,-0.319 0.311,-0.622 0.455,-0.911 0.057,-0.114 0.115,-0.229 0.169,-0.338 0.632,-1.277 1.069,-2.161 1.135,-2.294 -0.166,-0.151 -0.33,-0.301 -0.489,-0.447 -0.326,-0.301 -0.637,-0.591 -0.933,-0.87 -0.857,-0.808 -1.577,-1.513 -2.14,-2.075 -0.874,-0.873 -1.364,-1.399 -1.364,-1.399 0,0 0.493,0.473 1.371,1.257 0.565,0.506 1.291,1.141 2.152,1.868 0.359,0.304 0.74,0.622 1.144,0.954 1.024,0.84 2.187,1.762 3.451,2.711 0.51,0.383 1.034,0.769 1.575,1.157 0.46,0.33 0.932,0.66 1.412,0.989 1.484,1.017 3.056,2.019 4.671,2.934 2.137,1.203 4.352,2.268 6.501,2.956 0.919,0.295 1.82,0.523 2.687,0.668 0.145,0.024 0.291,0.051 0.434,0.07 0.702,0.095 1.372,0.128 2,0.107 0.263,-0.009 0.521,-0.025 0.767,-0.054 0.835,-0.094 1.556,-0.313 2.148,-0.585 0.597,-0.266 1.054,-0.603 1.412,-0.898 0.088,-0.076 0.171,-0.148 0.25,-0.215 0.076,-0.071 0.142,-0.144 0.206,-0.208 0.129,-0.127 0.237,-0.239 0.315,-0.34 0.059,-0.07 0.105,-0.124 0.144,-0.17 -0.317,-0.267 -0.643,-0.572 -0.971,-0.929 -0.554,-0.594 -1.108,-1.315 -1.657,-2.135 -0.477,-0.712 -0.951,-1.498 -1.416,-2.351 -0.002,-0.003 -0.004,-0.007 -0.006,-0.01 -1.019,-1.827 -2.041,-3.937 -3.212,-6.186 -0.778,-1.485 -1.634,-3.027 -2.603,-4.576 -0.499,-0.799 -1.027,-1.598 -1.593,-2.393 -0.084,-0.118 -0.173,-0.234 -0.258,-0.351 -0.763,-1.048 -1.6,-2.072 -2.51,-3.063 -0.253,-0.276 -0.504,-0.555 -0.776,-0.818 -0.267,-0.267 -0.525,-0.545 -0.803,-0.807 -0.278,-0.259 -0.558,-0.52 -0.839,-0.782 -0.283,-0.257 -0.576,-0.495 -0.865,-0.745 -0.28,-0.248 -0.602,-0.493 -0.921,-0.74 l -0.478,-0.37 -0.12,-0.093 -0.03,-0.024 c -10e-4,-10e-4 -0.038,-0.03 -0.011,-0.008 l -0.058,-0.04 -0.234,-0.159 -0.468,-0.322 -0.49,-0.29 c -0.321,-0.203 -0.669,-0.362 -1.009,-0.536 -0.341,-0.172 -0.704,-0.303 -1.056,-0.458 -0.367,-0.118 -0.724,-0.264 -1.099,-0.363 -0.374,-0.103 -0.744,-0.22 -1.129,-0.291 l -0.572,-0.121 -0.582,-0.086 c -0.776,-0.118 -1.567,-0.152 -2.359,-0.164 -0.249,0.01 -0.498,0.017 -0.747,0.027 -0.149,0.005 -0.297,0.01 -0.446,0.022 l -0.596,0.056 -0.298,0.027 -0.298,0.045 c -0.201,0.028 -0.402,0.06 -0.602,0.095 -1.382,0.238 -2.746,0.628 -4.065,1.143 -3.036,1.158 -5.819,2.985 -8.236,5.142 -1.212,1.077 -2.326,2.251 -3.372,3.459 -0.529,0.6 -1.013,1.233 -1.501,1.855 -0.239,0.315 -0.464,0.64 -0.696,0.957 l -0.345,0.477 -0.321,0.484 c -0.213,0.322 -0.426,0.644 -0.638,0.963 -0.206,0.338 -0.411,0.675 -0.615,1.01 l -0.296,0.485 -0.278,0.498 c -0.187,0.33 -0.373,0.659 -0.558,0.986 -0.69,1.33 -1.33,2.652 -1.815,3.987 -0.2,0.544 -0.375,1.088 -0.535,1.63 -0.232,0.784 -0.428,1.564 -0.574,2.335 -0.233,1.306 -0.329,2.588 -0.277,3.813 0.058,1.421 0.32,2.756 0.719,3.973 0.122,0.368 0.252,0.729 0.397,1.073 0.203,0.481 0.428,0.939 0.671,1.368 0.285,0.503 0.586,0.97 0.896,1.408 0.772,1.093 1.599,1.991 2.373,2.7 0.557,0.515 1.08,0.941 1.549,1.294 0.002,0.002 0.005,0.004 0.007,0.006 0.44,0.331 0.832,0.598 1.154,0.809 0.668,0.432 1.043,0.64 1.043,0.64 0,0 -0.097,-0.044 -0.286,-0.129 -0.188,-0.083 -0.466,-0.215 -0.822,-0.4 -0.355,-0.187 -0.791,-0.422 -1.285,-0.732 -0.497,-0.305 -1.056,-0.681 -1.647,-1.149 -0.591,-0.46 -1.223,-1.009 -1.853,-1.666 0.166,0.961 0.337,1.915 0.52,2.852 0.956,4.91 2.154,9.46 3.697,13.405 0.033,-0.013 0.067,-0.028 0.1,-0.04 0.703,-0.276 1.358,-0.49 1.941,-0.667 0.583,-0.177 1.097,-0.308 1.522,-0.405 0.85,-0.195 1.345,-0.27 1.345,-0.27 l 0.048,0.219 c 0,0 -0.472,0.134 -1.279,0.432 -0.804,0.303 -1.953,0.743 -3.247,1.419 -0.647,0.336 -1.329,0.732 -2.006,1.199 -0.675,0.469 -1.355,1.001 -1.954,1.627 -0.593,0.628 -1.113,1.345 -1.425,2.129 -0.313,0.783 -0.421,1.624 -0.283,2.456 0.123,0.832 0.481,1.643 0.941,2.387 0.47,0.743 1.022,1.435 1.584,2.096 0.555,0.666 1.128,1.298 1.684,1.899 0.553,0.602 1.107,1.156 1.614,1.678 0.517,0.519 0.992,0.995 1.413,1.416 0.212,0.214 0.411,0.413 0.594,0.598 0.183,0.189 0.351,0.362 0.502,0.518 0.307,0.311 0.546,0.56 0.706,0.735 0.159,0.178 0.243,0.272 0.243,0.272 l -0.125,0.186 c 0,0 -0.119,-0.045 -0.341,-0.131 -0.221,-0.088 -0.544,-0.22 -0.947,-0.404 -0.396,-0.194 -0.888,-0.416 -1.422,-0.721 -0.541,-0.296 -1.137,-0.654 -1.77,-1.078 -0.63,-0.428 -1.302,-0.913 -1.971,-1.491 -0.052,-0.043 -0.104,-0.091 -0.157,-0.136 -0.117,0.42 -0.236,0.852 -0.346,1.307 -0.293,1.2 -0.526,2.514 -0.526,3.907 0.001,1.193 0.169,2.443 0.622,3.749 0.681,1.957 2.003,4.062 4.47,6.261 2.362,2.105 5.784,4.281 10.642,6.416 -0.035,-0.215 -0.063,-0.414 -0.085,-0.591 -0.043,-0.317 -0.068,-0.563 -0.084,-0.731 -0.017,-0.168 -0.026,-0.257 -0.026,-0.257 l 0.11,-0.021 0.111,-0.022 c 0,0 0.004,0.015 0.01,0.036 0.011,0.039 0.03,0.109 0.06,0.214 0.045,0.163 0.113,0.401 0.207,0.698 0.044,0.149 0.1,0.312 0.16,0.49 0.046,0.143 0.099,0.296 0.157,0.454 0.015,0.04 0.028,0.078 0.043,0.118 0.144,0.407 0.336,0.854 0.553,1.329 0.226,0.471 0.498,0.963 0.83,1.438 0.04,0.056 0.083,0.111 0.124,0.167 0.306,0.412 0.658,0.804 1.072,1.117 0.466,0.361 1.003,0.611 1.576,0.735 0.573,0.125 1.188,0.119 1.806,0 0.22,-0.043 0.44,-0.101 0.658,-0.166 0.392,-0.117 0.78,-0.265 1.155,-0.449 0.294,-0.129 0.575,-0.305 0.862,-0.439 0.279,-0.167 0.561,-0.31 0.837,-0.463 0.117,-0.067 0.233,-0.13 0.349,-0.193 0.159,-0.086 0.317,-0.17 0.475,-0.252 0.269,-0.153 0.537,-0.293 0.802,-0.428 0.517,-0.293 1.025,-0.548 1.488,-0.807 0.473,-0.249 0.908,-0.477 1.292,-0.679 0.391,-0.2 0.744,-0.364 1.031,-0.507 0.289,-0.14 0.524,-0.243 0.687,-0.31 0.039,-0.017 0.074,-0.031 0.105,-0.043 0.095,-0.039 0.147,-0.058 0.147,-0.058 l 0.074,0.085 0.073,0.085 c 0,0 -0.047,0.083 -0.142,0.231 -0.095,0.149 -0.238,0.364 -0.43,0.629 -0.097,0.131 -0.205,0.276 -0.322,0.434 -0.124,0.151 -0.259,0.315 -0.407,0.486 -0.146,0.173 -0.308,0.35 -0.478,0.539 -0.177,0.181 -0.365,0.371 -0.566,0.563 -0.172,0.173 -0.361,0.344 -0.559,0.515 0.762,0.069 1.482,0.101 2.159,0.101 3.379,-0.002 5.74,-0.773 7.457,-1.692 0.858,-0.46 1.556,-0.961 2.133,-1.436 0.259,-0.213 0.49,-0.418 0.704,-0.615 -0.07,-0.069 -0.137,-0.137 -0.201,-0.205 -0.13,-0.129 -0.245,-0.259 -0.354,-0.38 -0.216,-0.244 -0.393,-0.461 -0.531,-0.653 -0.143,-0.188 -0.241,-0.336 -0.307,-0.439 -0.068,-0.101 -0.104,-0.156 -0.104,-0.156 l 0.085,-0.072 0.086,-0.073 c 0,0 0.014,0.013 0.04,0.036 0.023,0.021 0.055,0.051 0.098,0.09 0.089,0.084 0.222,0.206 0.393,0.344 0.084,0.072 0.18,0.148 0.288,0.229 0.106,0.083 0.218,0.173 0.346,0.262 0.213,0.155 0.462,0.319 0.73,0.483 0.045,0.028 0.086,0.055 0.133,0.083 0.088,0.054 0.185,0.106 0.279,0.158 0.076,0.043 0.147,0.087 0.226,0.129 0.443,0.234 0.94,0.447 1.462,0.623 0.109,0.036 0.215,0.076 0.325,0.108 0.43,0.125 0.878,0.197 1.313,0.229 0.437,0.027 0.866,-0.01 1.248,-0.123 0.383,-0.115 0.707,-0.324 0.968,-0.587 0.258,-0.269 0.479,-0.553 0.68,-0.878 0.113,-0.147 0.197,-0.328 0.311,-0.477 0.091,-0.174 0.2,-0.332 0.295,-0.501 0.084,-0.175 0.189,-0.337 0.272,-0.507 0.037,-0.074 0.073,-0.142 0.108,-0.214 -0.016,0.009 -0.032,0.019 -0.049,0.028 -0.988,0.534 -2.098,0.838 -3.26,0.838 -0.242,0 -0.482,-0.016 -0.72,-0.042 -0.793,-0.086 -1.553,-0.312 -2.257,-0.653 -0.095,-0.047 -0.19,-0.093 -0.283,-0.143 -0.123,-0.067 -0.243,-0.142 -0.363,-0.216 -1.317,-0.811 -2.403,-2.024 -3.177,-3.486 -0.845,-1.597 -1.326,-3.494 -1.327,-5.524 0.002,-2.707 0.854,-5.177 2.291,-7.014 0.551,-0.705 1.192,-1.315 1.907,-1.802 -0.007,-0.003 -0.015,-0.005 -0.022,-0.008 -0.777,-0.255 -1.217,-0.416 -1.217,-0.416 l 0.062,-0.215 c 0,0 0.453,0.099 1.253,0.246 0.133,0.024 0.278,0.05 0.43,0.078 0.054,-0.032 0.108,-0.065 0.163,-0.095 0.988,-0.534 2.099,-0.838 3.26,-0.837 1.162,-10e-4 2.272,0.303 3.26,0.837 0.588,0.318 1.131,0.717 1.627,1.179 0.637,0.05 1.282,0.094 1.937,0.138 0.904,0.05 1.821,0.086 2.736,0.093 0.914,0.006 1.828,-0.019 2.721,-0.09 0.893,-0.063 1.765,-0.149 2.605,-0.219 0.838,-0.066 1.648,-0.131 2.416,-0.192 0.383,-0.038 0.755,-0.076 1.115,-0.113 0.362,-0.033 0.704,-0.094 1.042,-0.128 0.336,-0.036 0.649,-0.101 0.956,-0.143 0.309,-0.037 0.592,-0.101 0.864,-0.15 0.548,-0.092 1.017,-0.208 1.415,-0.29 0.398,-0.084 0.7,-0.182 0.919,-0.228 0.219,-0.05 0.335,-0.076 0.335,-0.076 l 0.111,0.195 c 0,0 -0.088,0.083 -0.259,0.23 -0.085,0.076 -0.193,0.164 -0.321,0.269 -0.129,0.103 -0.272,0.233 -0.451,0.343 -0.119,0.079 -0.249,0.166 -0.386,0.256 0.249,0.076 0.536,0.158 0.864,0.236 0.267,0.066 0.557,0.13 0.865,0.184 0.308,0.054 0.631,0.104 0.964,0.135 0.332,0.031 0.674,0.043 1.014,0.041 0.339,-0.008 0.679,-0.032 1.001,-0.099 0.325,-0.056 0.624,-0.176 0.891,-0.312 0.264,-0.146 0.493,-0.305 0.703,-0.466 0.113,-0.071 0.201,-0.169 0.311,-0.239 0.097,-0.086 0.194,-0.172 0.294,-0.253 0.086,-0.096 0.181,-0.183 0.271,-0.272 0.084,-0.098 0.163,-0.195 0.249,-0.285 0.083,-0.092 0.149,-0.195 0.224,-0.286 0.006,-0.008 0.012,-0.016 0.019,-0.024 -0.281,0.065 -0.455,0.092 -0.473,0.095 l -0.255,-1.664 c 0.038,-0.004 1.356,-0.23 2.581,-0.915 0.615,-0.342 1.199,-0.792 1.614,-1.354 C 0.071,9.782 0.239,9.473 0.358,9.124 0.476,8.776 0.546,8.387 0.546,7.937 V 7.929 C 0.543,6.263 0.241,4.952 -0.311,3.884 -0.726,3.083 -1.286,2.408 -2.011,1.814 -3.096,0.924 -4.568,0.222 -6.425,-0.339 c -1.854,-0.562 -4.084,-0.982 -6.652,-1.339 -1.234,-0.172 -2.477,-0.249 -3.709,-0.249 -3.583,-10e-4 -7.08,0.653 -10.023,1.494 -0.892,3.067 -1.682,5.113 -2.42,6.455 -0.373,0.676 -0.732,1.178 -1.128,1.551 -0.198,0.185 -0.409,0.338 -0.644,0.45 -0.233,0.111 -0.494,0.177 -0.757,0.177 -0.207,0 -0.411,-0.041 -0.593,-0.112 -0.344,-0.135 -0.606,-0.356 -0.818,-0.598 -0.369,-0.428 -0.619,-0.941 -0.835,-1.496 -0.318,-0.832 -0.534,-1.763 -0.68,-2.572 -0.041,-0.227 -0.075,-0.442 -0.104,-0.645 -0.407,0.147 -0.844,0.259 -1.316,0.34 -0.795,0.136 -1.677,0.194 -2.617,0.194 -1.85,0 -3.928,-0.225 -5.948,-0.574 -2.019,-0.35 -3.974,-0.825 -5.572,-1.338 -0.916,-0.295 -1.699,-0.421 -2.384,-0.421 -0.646,0.001 -1.208,0.11 -1.736,0.311 -0.79,0.301 -1.517,0.821 -2.258,1.544 -0.339,0.331 -0.679,0.705 -1.025,1.112 0.014,0.452 0.021,0.878 0.021,1.276 0,0.992 -0.043,1.822 -0.122,2.52 -0.123,1.047 -0.315,1.795 -0.635,2.374 -0.162,0.288 -0.365,0.539 -0.633,0.726 -0.265,0.187 -0.597,0.289 -0.904,0.286 -0.287,-0.001 -0.546,-0.076 -0.77,-0.179 -0.391,-0.184 -0.701,-0.452 -0.982,-0.746 -0.417,-0.445 -0.76,-0.964 -1.02,-1.453 -0.054,-0.102 -0.101,-0.201 -0.147,-0.3 -0.75,0.228 -1.526,0.323 -2.326,0.322 C -66.54,8.769 -68,8.511 -69.664,8.191 l 0.319,-1.653 c 1.645,0.319 3.022,0.551 4.183,0.549 0.984,-10e-4 1.802,-0.156 2.58,-0.541 0.776,-0.386 1.537,-1.018 2.343,-2.06 1.092,-1.409 2.114,-2.675 3.314,-3.628 0.6,-0.475 1.248,-0.869 1.964,-1.142 0.715,-0.273 1.495,-0.422 2.336,-0.421 0.893,0 1.851,0.164 2.899,0.501 0.378,0.121 0.781,0.241 1.203,0.359 0.231,-0.774 0.621,-1.759 1.137,-2.648 0.297,-0.506 0.631,-0.979 1.038,-1.365 0.204,-0.192 0.429,-0.364 0.69,-0.495 0.26,-0.131 0.562,-0.22 0.887,-0.219 0.228,-0.001 0.462,0.045 0.68,0.133 0.383,0.155 0.705,0.425 0.981,0.766 0.414,0.516 0.753,1.207 1.073,2.149 0.271,0.806 0.523,1.8 0.755,3.019 0.893,0.084 1.759,0.133 2.561,0.132 0.87,10e-4 1.666,-0.055 2.333,-0.169 0.667,-0.113 1.203,-0.291 1.548,-0.493 0.649,-0.377 1.587,-0.842 2.766,-1.338 3.22,-1.352 8.225,-2.92 13.679,-3.192 0.021,-0.144 0.05,-0.289 0.091,-0.451 0.176,-0.673 0.524,-1.606 1.012,-2.448 0.246,-0.419 0.524,-0.815 0.872,-1.145 0.175,-0.164 0.369,-0.313 0.599,-0.428 0.228,-0.115 0.499,-0.196 0.791,-0.196 0.206,0 0.417,0.041 0.612,0.12 0.343,0.139 0.625,0.378 0.861,0.67 0.355,0.443 0.636,1.02 0.899,1.796 0.22,0.651 0.422,1.447 0.608,2.416 2.005,0.298 3.82,0.643 5.439,1.086 1.262,0.347 2.4,0.757 3.422,1.254 0.058,-0.138 0.117,-0.277 0.186,-0.422 0.136,-0.281 0.293,-0.568 0.469,-0.847 -2.245,-2.347 -4.344,-3.889 -6.26,-4.85 m -46.788,-27.417 c 0.364,-0.048 0.746,-0.093 1.144,-0.132 -0.226,-0.193 -0.447,-0.385 -0.665,-0.574 -0.123,0.18 -0.284,0.419 -0.479,0.706 m 2.001,12.687 c 2.249,10e-4 4.703,0.254 6.986,1.073 1.14,0.409 2.238,0.964 3.231,1.706 0.575,0.429 1.111,0.925 1.599,1.485 1.464,-2.136 2.864,-4.455 4.192,-6.905 -0.79,-0.204 -1.585,-0.465 -2.379,-0.77 -2.242,-0.862 -4.457,-2.091 -6.569,-3.441 -1.9,-1.224 -3.714,-2.559 -5.385,-3.883 -2.065,0.063 -3.838,0.308 -5.138,0.554 -0.096,0.019 -0.19,0.037 -0.282,0.055 -0.15,0.22 -0.302,0.443 -0.459,0.673 -0.283,0.398 -0.567,0.813 -0.875,1.227 -0.063,0.087 -0.13,0.174 -0.195,0.262 -0.297,2.986 -0.656,5.845 -1.069,8.574 1.467,-0.275 3.775,-0.609 6.343,-0.61 m 8.634,8.48 c 0.62,-0.74 1.23,-1.515 1.83,-2.323 -0.461,-0.613 -0.995,-1.134 -1.591,-1.58 -1.176,-0.881 -2.605,-1.469 -4.142,-1.833 -1.536,-0.363 -3.173,-0.5 -4.731,-0.499 -2.004,-10e-4 -3.875,0.224 -5.235,0.449 -0.608,0.1 -1.113,0.201 -1.485,0.28 -0.453,2.703 -0.961,5.267 -1.515,7.694 0.918,-0.45 1.965,-0.889 3.151,-1.271 2.324,-0.748 5.177,-1.281 8.618,-1.28 1.575,0 3.273,0.111 5.1,0.363 m 11.861,-1.34 c 2.512,-2.411 5.53,-5.046 8.216,-7.292 1.342,-1.124 2.601,-2.149 3.673,-3.001 1.072,-0.852 1.952,-1.527 2.555,-1.962 0.421,-0.304 0.754,-0.739 0.996,-1.338 0.241,-0.596 0.378,-1.352 0.378,-2.218 0.001,-1.298 -0.308,-2.834 -0.943,-4.412 -0.635,-1.579 -1.592,-3.201 -2.864,-4.694 -1.567,-1.842 -3.532,-3.443 -5.644,-4.759 -0.652,-0.406 -1.317,-0.785 -1.989,-1.135 -0.472,-0.245 -0.947,-0.478 -1.424,-0.695 -1.677,-0.765 -3.363,-1.35 -4.941,-1.741 -1.578,-0.391 -3.049,-0.587 -4.276,-0.586 -0.09,0 -0.174,0.003 -0.261,0.006 0.154,0.225 0.309,0.45 0.457,0.676 0.252,0.385 0.494,0.769 0.73,1.154 0.532,0.863 1.028,1.724 1.48,2.578 0.06,0.115 0.117,0.228 0.176,0.342 0.576,1.119 1.101,2.216 1.587,3.277 0.946,2.054 1.735,3.981 2.508,5.684 0.105,0.233 0.211,0.463 0.317,0.688 0.214,0.469 0.44,0.911 0.652,1.343 0.115,0.213 0.226,0.425 0.336,0.632 0.106,0.201 0.212,0.397 0.323,0.585 0.432,0.775 0.887,1.448 1.337,2.027 0.905,1.154 1.818,1.891 2.499,2.293 0.333,0.218 0.614,0.339 0.8,0.428 0.186,0.09 0.282,0.136 0.282,0.136 0,0 -0.1,-0.036 -0.295,-0.104 -0.194,-0.07 -0.492,-0.158 -0.848,-0.346 -0.099,-0.047 -0.204,-0.101 -0.312,-0.159 l 0.337,0.28 c 0,0 -0.12,0.128 -0.346,0.368 -0.109,0.122 -0.258,0.262 -0.438,0.421 -0.09,0.08 -0.183,0.169 -0.289,0.257 -0.109,0.084 -0.225,0.174 -0.349,0.269 -0.497,0.366 -1.142,0.779 -1.948,1.086 -0.801,0.314 -1.749,0.537 -2.771,0.593 -0.403,0.025 -0.819,0.019 -1.241,-0.001 -0.206,-0.01 -0.413,-0.025 -0.622,-0.045 -2.087,3.922 -4.366,7.554 -6.825,10.711 -0.021,0.015 -0.041,0.031 -0.061,0.046 0.007,0.002 0.014,0.003 0.021,0.005 -0.097,0.124 -0.193,0.249 -0.29,0.372 1.892,0.373 3.908,0.889 6.058,1.578 0.022,-0.025 0.046,-0.05 0.068,-0.075 0.89,-1.002 1.979,-2.108 3.191,-3.272 m 7.254,-40.593 c 0.126,-0.484 0.247,-0.963 0.366,-1.441 -1.189,-1.025 -2.587,-1.886 -4.137,-2.601 -2.642,-1.22 -5.72,-2.009 -8.869,-2.484 -3.149,-0.476 -6.368,-0.642 -9.295,-0.641 -3.187,0 -6.029,0.195 -8.069,0.39 -0.941,0.09 -1.709,0.18 -2.264,0.25 0.023,0.507 0.044,1.009 0.063,1.499 0.008,0.209 0.013,0.414 0.02,0.622 0.272,-0.008 0.544,-0.013 0.816,-0.022 0.894,0.019 1.788,0.066 2.67,0.207 1.763,0.265 3.489,0.777 5.051,1.589 0.387,0.208 0.78,0.402 1.145,0.643 l 0.554,0.347 0.528,0.38 0.263,0.19 0.066,0.048 0.078,0.062 0.118,0.095 0.469,0.382 c 0.312,0.253 0.623,0.501 0.935,0.788 0.309,0.279 0.627,0.551 0.924,0.833 0.292,0.284 0.582,0.568 0.87,0.85 0.56,0.58 1.114,1.156 1.615,1.767 0.253,0.299 0.501,0.599 0.743,0.902 v 0 0 c 0.109,-0.018 0.22,-0.032 0.331,-0.047 0.057,-0.007 0.113,-0.015 0.171,-0.021 0.097,-0.011 0.194,-0.02 0.293,-0.029 0.088,-0.007 0.178,-0.013 0.268,-0.018 0.076,-0.005 0.151,-0.01 0.229,-0.013 0.175,-0.007 0.351,-0.012 0.531,-0.012 1.461,0 3.093,0.226 4.815,0.652 1.937,0.481 3.987,1.217 6.008,2.194 0.171,0.083 0.341,0.172 0.511,0.258 0.807,-2.577 1.538,-5.132 2.183,-7.619 m 3.474,-19.459 c 0.062,-0.96 0.094,-1.853 0.094,-2.666 10e-4,-1.744 -0.135,-4.12 -0.524,-6.884 -3.475,-1.353 -7.056,-1.929 -10.578,-1.977 -0.028,-0.001 -0.055,-0.001 -0.083,-0.001 -0.135,-0.002 -0.27,-0.004 -0.405,-0.004 -3.1,-0.002 -6.145,0.404 -9.003,1.032 -3.519,0.773 -6.755,1.885 -9.458,3.003 -2.45,1.013 -4.463,2.026 -5.858,2.783 -0.655,0.355 -1.172,0.653 -1.536,0.869 0.787,5.111 1.238,10.072 1.494,14.529 1.894,-0.235 5.799,-0.637 10.448,-0.637 4.016,0.001 8.584,0.298 12.905,1.281 2.161,0.492 4.261,1.156 6.2,2.051 1.35,0.622 2.62,1.361 3.775,2.23 0.71,-3.062 1.286,-5.981 1.712,-8.656 0.41,-2.567 0.683,-4.915 0.817,-6.953 m -2.684,-26.166 c 0.134,-0.668 0.302,-1.334 0.375,-2.018 0.042,-0.341 0.108,-0.679 0.129,-1.022 l 0.066,-1.028 c 0.034,-0.342 0.015,-0.686 0.012,-1.028 -0.009,-0.342 -10e-4,-0.684 -0.024,-1.024 -0.033,-0.338 -0.067,-0.676 -0.1,-1.013 l -0.05,-0.504 -0.093,-0.496 c -0.062,-0.33 -0.123,-0.658 -0.184,-0.985 -0.064,-0.325 -0.172,-0.64 -0.254,-0.957 -0.093,-0.315 -0.167,-0.633 -0.272,-0.939 -0.115,-0.303 -0.229,-0.603 -0.341,-0.902 -0.057,-0.149 -0.113,-0.297 -0.168,-0.444 l -0.083,-0.221 -0.103,-0.213 c -0.136,-0.282 -0.271,-0.561 -0.405,-0.837 -0.066,-0.138 -0.132,-0.276 -0.198,-0.412 -0.063,-0.138 -0.131,-0.272 -0.212,-0.399 -0.154,-0.258 -0.305,-0.513 -0.455,-0.765 -0.149,-0.251 -0.296,-0.499 -0.44,-0.743 -0.165,-0.232 -0.328,-0.46 -0.488,-0.685 -0.16,-0.224 -0.317,-0.445 -0.471,-0.661 -0.077,-0.109 -0.153,-0.216 -0.228,-0.322 -0.077,-0.105 -0.166,-0.201 -0.247,-0.3 -0.663,-0.783 -1.241,-1.519 -1.848,-2.099 -0.584,-0.596 -1.076,-1.128 -1.54,-1.514 -0.895,-0.8 -1.406,-1.257 -1.406,-1.257 l 0.244,-0.277 c -0.083,-0.003 -0.167,-0.004 -0.248,-0.008 -0.696,-0.033 -1.35,-0.096 -1.949,-0.183 -1.198,-0.17 -2.176,-0.414 -2.842,-0.632 -0.335,-0.111 -0.597,-0.203 -0.767,-0.273 -0.173,-0.067 -0.265,-0.103 -0.265,-0.103 l 0.065,-0.215 c 0,0 0.097,0.021 0.278,0.06 0.183,0.043 0.445,0.09 0.781,0.145 0.676,0.099 1.644,0.221 2.809,0.22 0.581,0.005 1.21,-0.02 1.87,-0.079 0.437,-0.041 0.889,-0.092 1.349,-0.159 l 0.159,-0.181 c 0,0 0.05,0.05 0.137,0.135 0.136,-0.022 0.272,-0.044 0.41,-0.07 1.405,-0.267 2.873,-0.686 4.187,-1.347 0.656,-0.329 1.261,-0.735 1.779,-1.191 0.518,-0.459 0.958,-0.949 1.326,-1.447 0.097,-0.121 0.186,-0.246 0.268,-0.373 l 0.128,-0.187 0.004,-0.006 c 0.005,-0.007 -0.027,0.047 -0.011,0.021 l 0.009,-0.015 0.017,-0.028 0.035,-0.058 0.07,-0.114 0.138,-0.224 0.1,-0.178 c 0.073,-0.114 0.132,-0.239 0.195,-0.36 0.107,-0.236 0.212,-0.466 0.242,-0.634 0.043,-0.175 0.046,-0.273 0.042,-0.361 -0.007,-0.086 -0.066,-0.203 -0.203,-0.312 -0.132,-0.112 -0.317,-0.204 -0.504,-0.284 -0.38,-0.154 -0.778,-0.246 -1.106,-0.313 -0.09,-0.017 -0.174,-0.033 -0.255,-0.047 -0.197,0.325 -0.408,0.631 -0.627,0.92 -0.355,0.473 -0.743,0.897 -1.129,1.29 -0.771,0.787 -1.565,1.429 -2.28,1.93 -0.719,0.495 -1.367,0.843 -1.856,1.018 -0.245,0.089 -0.439,0.139 -0.589,0.161 -0.074,0.015 -0.121,0.013 -0.156,0.017 -0.034,0.003 -0.052,0.004 -0.052,0.004 l -0.041,-0.221 c 0,0 0.017,-0.005 0.05,-0.015 0.031,-0.011 0.086,-0.023 0.138,-0.048 0.107,-0.041 0.278,-0.127 0.475,-0.254 0.199,-0.13 0.433,-0.302 0.688,-0.517 0.256,-0.214 0.53,-0.475 0.821,-0.768 0.578,-0.587 1.202,-1.327 1.792,-2.157 0.295,-0.415 0.573,-0.859 0.832,-1.31 0.256,-0.451 0.482,-0.923 0.632,-1.382 0.152,-0.451 0.195,-0.927 0.098,-1.163 -0.044,-0.12 -0.103,-0.155 -0.144,-0.183 -0.049,-0.025 -0.114,-0.066 -0.234,-0.117 -0.12,-0.051 -0.283,-0.1 -0.457,-0.15 -0.184,-0.04 -0.376,-0.086 -0.58,-0.116 -0.406,-0.06 -0.826,-0.102 -1.226,-0.131 -0.411,-0.029 -0.787,-0.056 -1.121,-0.08 -0.341,-0.02 -0.648,-0.052 -0.902,-0.075 -0.028,-0.003 -0.053,-0.006 -0.08,-0.009 0.078,0.428 0.036,0.826 -0.037,1.166 -0.211,0.85 -0.582,1.481 -0.963,2.031 -0.766,1.093 -1.571,1.876 -2.258,2.489 -0.692,0.607 -1.278,1.029 -1.696,1.291 -0.208,0.132 -0.373,0.226 -0.487,0.285 -0.115,0.057 -0.174,0.087 -0.174,0.087 l -0.119,-0.19 c 0,0 0.198,-0.157 0.534,-0.491 0.337,-0.334 0.809,-0.849 1.359,-1.537 0.275,-0.344 0.564,-0.737 0.858,-1.172 0.296,-0.432 0.596,-0.912 0.857,-1.435 0.132,-0.261 0.246,-0.534 0.353,-0.808 0.091,-0.275 0.177,-0.559 0.199,-0.821 0.024,-0.26 -0.009,-0.489 -0.087,-0.628 -0.078,-0.138 -0.182,-0.237 -0.391,-0.339 -0.058,-0.021 -0.104,-0.05 -0.168,-0.069 l -0.2,-0.057 c -0.065,-0.024 -0.135,-0.024 -0.202,-0.039 l -0.101,-0.018 -0.052,-0.01 -0.075,-0.007 -0.301,-0.027 -0.075,-0.006 -0.038,-0.004 c -0.044,-0.004 0.038,0.005 0.023,0.004 h -0.018 l -0.142,0.001 c -0.189,-0.001 -0.38,-0.001 -0.573,-0.001 -0.772,-0.001 -1.587,0.075 -2.425,0.175 -1.677,0.216 -3.453,0.576 -5.273,1.03 -1.823,0.446 -3.699,0.977 -5.569,1.613 -0.937,0.316 -1.862,0.677 -2.776,1.067 l -0.675,0.309 c -0.224,0.104 -0.456,0.205 -0.662,0.317 l -0.636,0.327 c -0.216,0.117 -0.44,0.258 -0.659,0.386 -0.801,0.467 -1.476,1.064 -1.736,1.743 -0.133,0.34 -0.177,0.709 -0.135,1.11 0.043,0.4 0.172,0.822 0.346,1.239 0.009,0.02 0.02,0.04 0.029,0.06 3.595,1.035 6.847,2.353 9.775,3.899 5.614,2.963 10.052,6.748 13.534,10.891 3.119,3.712 5.469,7.705 7.239,11.662 0.027,-0.101 0.055,-0.2 0.081,-0.301 m -47.771,-25.515 c 0.081,0.11 0.169,0.216 0.246,0.332 0.075,0.118 0.151,0.237 0.228,0.357 0.154,0.239 0.31,0.484 0.469,0.732 0.159,0.249 0.32,0.502 0.483,0.758 0.143,0.27 0.288,0.544 0.435,0.822 0.146,0.277 0.295,0.559 0.445,0.843 0.067,0.119 0.124,0.244 0.177,0.371 1.973,-0.882 4.351,-1.736 7.182,-2.45 1.343,-0.339 2.789,-0.646 4.341,-0.909 -1.557,-0.371 -3.179,-0.69 -4.872,-0.951 -3.043,-0.469 -6.312,-0.75 -9.822,-0.816 0.223,0.294 0.45,0.599 0.688,0.911 m 3.428,6.622 c 0.104,0.326 0.21,0.655 0.317,0.986 0.096,0.334 0.16,0.681 0.242,1.023 0.073,0.345 0.169,0.687 0.221,1.039 0.048,0.353 0.096,0.708 0.145,1.064 l 0.071,0.534 0.028,0.54 c 0.017,0.361 0.035,0.722 0.052,1.084 0.006,0.362 -0.019,0.725 -0.028,1.087 -0.014,0.362 -0.014,0.725 -0.067,1.085 l -0.123,1.078 c -0.041,0.359 -0.127,0.711 -0.188,1.065 -0.099,0.621 -0.269,1.222 -0.427,1.821 0.675,1.113 1.308,2.261 1.904,3.437 1.118,-0.927 3.033,-2.367 5.665,-3.812 0.87,-0.477 1.821,-0.953 2.843,-1.411 3.177,-1.424 7.075,-2.664 11.589,-3.148 0.244,-0.027 0.493,-0.048 0.741,-0.07 1.073,-0.094 2.176,-0.15 3.316,-0.15 2.599,0 5.364,0.266 8.272,0.88 -2.621,-2.959 -5.768,-5.698 -9.553,-8.032 -2.686,-1.656 -5.698,-3.11 -9.072,-4.295 -0.095,0.009 -0.188,0.018 -0.282,0.027 -0.573,0.054 -1.134,0.114 -1.682,0.179 -2.665,0.319 -5.034,0.766 -7.13,1.292 -2.776,0.695 -5.076,1.526 -6.959,2.373 0.035,0.108 0.07,0.216 0.105,0.324 m 37.856,31.354 c 0.085,0.006 0.17,0.013 0.255,0.019 2.678,0.189 5.392,0.688 8.071,1.597 -0.198,-1.066 -0.432,-2.171 -0.71,-3.309 -0.493,-2.01 -1.121,-4.116 -1.913,-6.259 -0.117,-0.314 -0.237,-0.629 -0.361,-0.945 -0.681,-1.743 -1.472,-3.504 -2.392,-5.253 -1.103,-2.095 -2.391,-4.17 -3.885,-6.177 -3.806,-1.086 -7.355,-1.53 -10.62,-1.53 -1.089,0 -2.142,0.054 -3.167,0.145 -0.208,0.019 -0.417,0.037 -0.623,0.059 -4.398,0.469 -8.179,1.699 -11.233,3.1 -0.852,0.391 -1.65,0.794 -2.386,1.198 -2.052,1.126 -3.643,2.252 -4.714,3.09 -0.426,0.333 -0.766,0.618 -1.023,0.843 0.29,0.634 0.573,1.273 0.842,1.92 2.512,6.026 4.178,12.583 5.291,18.992 1.426,-0.808 3.838,-2.081 6.925,-3.356 2.308,-0.953 4.996,-1.907 7.93,-2.666 3.514,-0.909 7.382,-1.539 11.388,-1.54 0.77,0 1.546,0.023 2.325,0.072 m -47.349,-41.986 c -0.082,-0.003 -0.166,-0.004 -0.248,-0.008 -0.696,-0.032 -1.35,-0.096 -1.949,-0.183 -1.198,-0.169 -2.175,-0.413 -2.842,-0.632 -0.334,-0.11 -0.597,-0.202 -0.767,-0.272 -0.172,-0.068 -0.264,-0.104 -0.264,-0.104 l 0.065,-0.215 c 0,0 0.096,0.021 0.278,0.061 0.182,0.043 0.445,0.089 0.78,0.144 0.676,0.099 1.645,0.221 2.809,0.221 0.581,0.005 1.21,-0.021 1.87,-0.08 0.437,-0.041 0.89,-0.091 1.349,-0.159 l 0.159,-0.18 c 0,0 0.051,0.049 0.137,0.135 0.137,-0.022 0.273,-0.045 0.41,-0.071 1.405,-0.267 2.874,-0.685 4.188,-1.346 0.655,-0.33 1.26,-0.735 1.779,-1.192 0.517,-0.458 0.957,-0.948 1.325,-1.446 0.097,-0.122 0.186,-0.247 0.268,-0.374 l 0.128,-0.186 0.005,-0.006 c 0.004,-0.008 -0.027,0.047 -0.012,0.02 l 0.009,-0.014 0.018,-0.029 0.034,-0.057 0.07,-0.115 0.138,-0.224 0.101,-0.177 c 0.072,-0.114 0.131,-0.24 0.195,-0.361 0.106,-0.236 0.211,-0.466 0.241,-0.634 0.044,-0.174 0.047,-0.273 0.042,-0.361 -0.007,-0.086 -0.066,-0.203 -0.203,-0.312 -0.132,-0.112 -0.316,-0.204 -0.504,-0.283 -0.379,-0.154 -0.778,-0.247 -1.105,-0.314 -0.09,-0.017 -0.174,-0.032 -0.255,-0.046 -0.197,0.325 -0.408,0.63 -0.627,0.919 -0.356,0.474 -0.743,0.898 -1.13,1.29 -0.771,0.787 -1.564,1.43 -2.28,1.93 -0.719,0.496 -1.366,0.844 -1.855,1.019 -0.246,0.089 -0.44,0.139 -0.589,0.16 -0.075,0.015 -0.121,0.014 -0.157,0.018 -0.034,0.002 -0.051,0.004 -0.051,0.004 l -0.041,-0.221 c 0,0 0.017,-0.005 0.049,-0.015 0.032,-0.011 0.086,-0.023 0.138,-0.048 0.107,-0.041 0.279,-0.128 0.476,-0.255 0.199,-0.129 0.432,-0.302 0.688,-0.516 0.256,-0.215 0.53,-0.476 0.82,-0.768 0.578,-0.588 1.202,-1.327 1.793,-2.157 0.294,-0.416 0.572,-0.859 0.831,-1.31 0.256,-0.452 0.482,-0.923 0.633,-1.383 0.151,-0.45 0.194,-0.926 0.097,-1.163 -0.044,-0.12 -0.103,-0.154 -0.144,-0.183 -0.048,-0.024 -0.114,-0.065 -0.234,-0.116 -0.12,-0.052 -0.282,-0.1 -0.457,-0.15 -0.183,-0.041 -0.375,-0.087 -0.58,-0.116 -0.406,-0.061 -0.826,-0.102 -1.225,-0.132 -0.411,-0.029 -0.788,-0.055 -1.121,-0.079 -0.342,-0.021 -0.648,-0.053 -0.902,-0.076 -0.028,-0.003 -0.054,-0.006 -0.081,-0.008 0.078,0.427 0.037,0.825 -0.036,1.166 -0.211,0.849 -0.582,1.48 -0.963,2.03 -0.767,1.094 -1.571,1.876 -2.259,2.489 -0.691,0.608 -1.278,1.03 -1.696,1.292 -0.208,0.132 -0.373,0.225 -0.487,0.284 -0.114,0.058 -0.173,0.087 -0.173,0.087 l -0.119,-0.19 c 0,0 0.197,-0.156 0.534,-0.491 0.336,-0.333 0.809,-0.848 1.359,-1.537 0.275,-0.344 0.564,-0.736 0.858,-1.171 0.296,-0.432 0.595,-0.912 0.856,-1.436 0.133,-0.261 0.246,-0.533 0.353,-0.808 0.092,-0.275 0.178,-0.559 0.2,-0.82 0.023,-0.261 -0.009,-0.49 -0.088,-0.629 -0.077,-0.138 -0.181,-0.236 -0.391,-0.338 -0.057,-0.021 -0.103,-0.05 -0.167,-0.07 l -0.2,-0.057 c -0.066,-0.024 -0.136,-0.023 -0.203,-0.038 l -0.101,-0.019 -0.052,-0.01 -0.075,-0.006 -0.3,-0.027 -0.076,-0.007 -0.038,-0.003 c -0.043,-0.005 0.038,0.004 0.023,0.004 h -0.017 -0.142 c -0.19,0 -0.381,0 -0.574,0 -0.771,-0.002 -1.587,0.075 -2.425,0.174 -1.677,0.217 -3.452,0.577 -5.273,1.031 -1.822,0.445 -3.698,0.976 -5.569,1.612 -0.936,0.317 -1.862,0.678 -2.776,1.067 l -0.675,0.309 c -0.224,0.104 -0.456,0.205 -0.661,0.317 l -0.637,0.327 c -0.215,0.117 -0.439,0.258 -0.659,0.386 -0.801,0.467 -1.476,1.064 -1.735,1.744 -0.133,0.34 -0.177,0.709 -0.135,1.109 0.042,0.4 0.172,0.822 0.346,1.239 0.359,0.837 0.883,1.65 1.438,2.431 0.561,0.781 1.163,1.534 1.773,2.264 0.436,0.521 0.876,1.027 1.314,1.527 0.176,0.201 0.353,0.404 0.528,0.602 0.307,0.344 0.612,0.682 0.907,1.05 0.08,0.097 0.158,0.193 0.237,0.289 0.068,0.083 0.136,0.166 0.204,0.248 0.071,0.09 0.147,0.176 0.215,0.268 l 0.194,0.283 c 0.151,0.208 0.294,0.419 0.433,0.631 0.525,0.803 0.959,1.63 1.297,2.46 0.204,0.5 0.377,1.001 0.508,1.498 0.414,1.538 0.476,3.014 0.346,4.286 -0.044,0.317 -0.071,0.626 -0.126,0.919 -0.06,0.292 -0.119,0.573 -0.175,0.843 -0.076,0.264 -0.149,0.518 -0.219,0.76 -0.068,0.243 -0.163,0.465 -0.236,0.68 -0.039,0.107 -0.077,0.211 -0.113,0.312 -0.043,0.099 -0.084,0.195 -0.124,0.288 -0.011,0.024 -0.02,0.047 -0.031,0.07 l -0.001,0.003 c -0.068,0.158 -0.133,0.308 -0.194,0.448 -0.002,0.006 -0.005,0.011 -0.008,0.016 -0.106,0.213 -0.2,0.403 -0.284,0.57 -0.008,0.015 -0.016,0.031 -0.023,0.045 -0.031,0.06 -0.06,0.117 -0.088,0.17 -0.236,0.419 -0.362,0.642 -0.362,0.642 l -0.199,-0.104 c 0,0 0.007,-0.014 0.021,-0.043 0.024,-0.049 0.07,-0.144 0.134,-0.276 0.046,-0.095 0.101,-0.208 0.167,-0.344 0.074,-0.163 0.155,-0.356 0.248,-0.576 0.031,-0.073 0.063,-0.149 0.097,-0.228 0.059,-0.162 0.122,-0.336 0.189,-0.522 0.033,-0.093 0.068,-0.189 0.103,-0.288 0.03,-0.1 0.06,-0.203 0.091,-0.31 0.033,-0.105 0.065,-0.214 0.097,-0.326 0.095,-0.336 0.184,-0.701 0.258,-1.092 0.075,-0.391 0.135,-0.809 0.172,-1.251 0.012,-0.147 0.022,-0.297 0.029,-0.45 0.015,-0.304 0.018,-0.619 0.006,-0.942 -0.011,-0.323 -0.037,-0.654 -0.079,-0.992 -0.062,-0.506 -0.162,-1.026 -0.305,-1.553 -0.047,-0.176 -0.1,-0.352 -0.158,-0.529 -0.203,-0.631 -0.475,-1.264 -0.806,-1.891 -1.531,-0.211 -3.136,-0.321 -4.821,-0.322 -3.467,0 -7.273,0.47 -11.446,1.49 -4.977,2.419 -8.805,5.321 -11.762,8.485 -4.488,4.803 -6.987,10.221 -8.377,15.519 -1.387,5.297 -1.652,10.463 -1.651,14.696 0,2.454 0.088,4.59 0.092,6.285 0.009,4.159 0.203,9.046 0.396,14.198 0.192,5.152 0.383,10.572 0.383,15.815 0,4.325 -0.129,8.529 -0.498,12.373 -0.188,1.949 -0.281,3.618 -0.281,4.987 0,0.838 0.035,1.563 0.102,2.165 0.049,0.452 0.117,0.834 0.195,1.139 0.059,0.229 0.124,0.413 0.185,0.549 0.076,0.17 0.144,0.255 0.175,0.285 0.027,-0.004 0.077,-0.015 0.154,-0.048 0.201,-0.08 0.549,-0.305 0.968,-0.696 0.633,-0.586 1.429,-1.528 2.343,-2.814 0.916,-1.287 1.954,-2.917 3.11,-4.891 0.789,-1.343 1.467,-3.261 2.032,-5.565 0.995,-4.034 1.664,-9.238 2.328,-14.751 0.499,-4.137 0.999,-8.453 1.648,-12.609 0.487,-3.117 1.058,-6.145 1.781,-8.948 0.543,-2.102 1.17,-4.077 1.918,-5.871 1.122,-2.688 2.51,-4.981 4.337,-6.645 0.912,-0.829 1.937,-1.496 3.074,-1.951 1.137,-0.456 2.382,-0.695 3.715,-0.695 1.3,0 2.682,0.226 4.152,0.683 1.186,0.368 2.271,0.955 3.247,1.72 1.832,1.437 3.282,3.48 4.479,5.957 2.09,4.339 3.433,10.054 4.462,16.562 1.266,8.029 2.037,17.267 2.97,26.503 0.34,-0.849 0.717,-1.696 1.118,-2.545 0.18,-0.349 0.361,-0.7 0.544,-1.053 l 0.277,-0.53 0.302,-0.524 c 0.196,-0.339 0.393,-0.68 0.591,-1.023 0.218,-0.346 0.436,-0.693 0.655,-1.041 l 0.33,-0.524 0.349,-0.509 c 0.235,-0.338 0.463,-0.683 0.707,-1.019 0.497,-0.666 0.991,-1.343 1.534,-1.989 1.07,-1.304 2.227,-2.575 3.52,-3.729 2.562,-2.322 5.548,-4.326 8.876,-5.627 1.547,-0.595 3.162,-1.029 4.807,-1.276 -0.009,-0.251 -0.015,-0.498 -0.025,-0.749 -0.209,-5.582 -0.701,-12.275 -1.826,-19.159 -0.844,-5.163 -2.043,-10.433 -3.739,-15.419 -1.169,-3.441 -2.579,-6.74 -4.263,-9.782 -0.181,0.449 -0.37,0.892 -0.578,1.318 -0.268,0.614 -0.597,1.184 -0.89,1.757 -0.156,0.28 -0.32,0.553 -0.478,0.824 -0.156,0.272 -0.313,0.539 -0.482,0.794 -0.165,0.257 -0.328,0.51 -0.488,0.76 -0.168,0.244 -0.335,0.484 -0.498,0.72 -0.32,0.476 -0.665,0.911 -0.981,1.339 -0.164,0.209 -0.325,0.413 -0.485,0.611 -0.478,0.594 -0.936,1.136 -1.371,1.614 -0.572,0.645 -1.1,1.18 -1.536,1.618 -0.882,0.868 -1.425,1.318 -1.425,1.318 0,0 0.52,-0.477 1.355,-1.385 0.206,-0.229 0.434,-0.483 0.678,-0.763 0.121,-0.141 0.247,-0.288 0.376,-0.441 0.128,-0.154 0.26,-0.314 0.394,-0.481 0.273,-0.331 0.554,-0.691 0.843,-1.075 0.288,-0.384 0.585,-0.793 0.888,-1.224 0.291,-0.439 0.611,-0.885 0.904,-1.371 0.149,-0.241 0.301,-0.485 0.456,-0.734 0.145,-0.254 0.293,-0.511 0.442,-0.772 0.154,-0.259 0.295,-0.529 0.436,-0.804 0.141,-0.274 0.289,-0.549 0.428,-0.832 0.258,-0.575 0.553,-1.148 0.784,-1.76 0.268,-0.626 0.502,-1.278 0.713,-1.944 0.194,-0.613 0.369,-1.237 0.53,-1.869 0.078,-0.385 0.165,-0.77 0.24,-1.157 0.055,-0.285 0.105,-0.571 0.136,-0.86 0.041,-0.341 0.107,-0.679 0.129,-1.023 l 0.065,-1.028 c 0.034,-0.342 0.016,-0.685 0.013,-1.027 -0.01,-0.343 -0.002,-0.684 -0.025,-1.024 -0.033,-0.339 -0.066,-0.677 -0.1,-1.014 l -0.05,-0.504 -0.093,-0.496 c -0.061,-0.329 -0.122,-0.658 -0.183,-0.984 -0.064,-0.326 -0.172,-0.64 -0.255,-0.958 -0.092,-0.315 -0.166,-0.632 -0.272,-0.938 -0.114,-0.303 -0.228,-0.604 -0.341,-0.902 -0.021,-0.057 -0.043,-0.113 -0.064,-0.17 -0.035,-0.092 -0.069,-0.184 -0.104,-0.275 l -0.083,-0.221 -0.103,-0.212 c -0.136,-0.282 -0.271,-0.561 -0.404,-0.838 -0.067,-0.138 -0.133,-0.275 -0.199,-0.412 -0.013,-0.029 -0.028,-0.057 -0.041,-0.086 -0.052,-0.107 -0.107,-0.212 -0.171,-0.313 -0.153,-0.258 -0.305,-0.513 -0.454,-0.764 -0.149,-0.251 -0.296,-0.499 -0.441,-0.743 -0.165,-0.232 -0.328,-0.461 -0.488,-0.686 -0.159,-0.224 -0.316,-0.444 -0.47,-0.661 -0.077,-0.108 -0.153,-0.215 -0.229,-0.321 -0.077,-0.105 -0.165,-0.201 -0.246,-0.3 -0.648,-0.765 -1.215,-1.483 -1.806,-2.056 -0.014,-0.013 -0.028,-0.03 -0.042,-0.043 -0.584,-0.596 -1.076,-1.129 -1.541,-1.515 -0.276,-0.247 -0.51,-0.456 -0.71,-0.634 -0.446,-0.4 -0.696,-0.623 -0.696,-0.623 z m -20.65,6.199 c 0.482,-0.017 0.96,-0.025 1.431,-0.025 1.094,-0.001 2.158,0.046 3.196,0.132 l 0.115,0.149 -0.115,-0.149 -0.08,-0.105 c -0.068,-0.084 -0.145,-0.161 -0.217,-0.242 -0.145,-0.16 -0.292,-0.321 -0.44,-0.484 -0.056,-0.064 -0.118,-0.128 -0.177,-0.192 -1.284,0.282 -2.52,0.588 -3.713,0.916 m -25.314,100.155 c 0.302,0.001 0.578,-0.022 0.802,-0.064 0.168,-0.031 0.306,-0.073 0.406,-0.117 0.075,-0.032 0.129,-0.065 0.164,-0.092 0.053,-0.042 0.068,-0.064 0.086,-0.098 0.015,-0.034 0.038,-0.094 0.039,-0.231 0,-0.12 -0.021,-0.296 -0.087,-0.528 -0.098,-0.348 -0.297,-0.817 -0.631,-1.395 -0.135,-0.236 -0.299,-0.494 -0.48,-0.765 -0.789,1.178 -1.518,2.164 -2.193,2.965 -0.029,0.036 -0.059,0.069 -0.088,0.104 0.654,0.128 1.368,0.222 1.982,0.221 m 4.838,-9.215 c 0.29,-0.041 0.56,-0.099 0.787,-0.17 0.342,-0.104 0.576,-0.245 0.665,-0.335 0.047,-0.045 0.063,-0.073 0.071,-0.092 0.008,-0.019 0.015,-0.034 0.016,-0.089 0,-0.059 -0.014,-0.172 -0.083,-0.348 -0.103,-0.263 -0.335,-0.655 -0.748,-1.14 -0.219,-0.259 -0.49,-0.545 -0.813,-0.855 -0.312,1.124 -0.658,2.163 -1.051,3.108 0.393,-0.003 0.791,-0.026 1.156,-0.079 m 2.132,-13.505 c 0.83,-0.522 1.661,-1.142 2.239,-1.805 0.289,-0.33 0.515,-0.668 0.664,-1.003 0.149,-0.337 0.226,-0.667 0.227,-1.025 0,-0.28 -0.048,-0.582 -0.168,-0.926 -0.18,-0.514 -0.533,-1.125 -1.145,-1.822 -0.308,-0.352 -0.682,-0.725 -1.128,-1.117 -0.249,2.071 -0.493,4.12 -0.75,6.104 -0.078,0.6 -0.157,1.191 -0.238,1.778 0.099,-0.06 0.199,-0.121 0.299,-0.184 m 2.344,-17.852 c 0.789,-0.423 1.605,-1.011 2.177,-1.666 0.287,-0.327 0.513,-0.668 0.663,-1.008 0.151,-0.342 0.228,-0.679 0.229,-1.035 0,-0.262 -0.043,-0.539 -0.146,-0.845 -0.156,-0.459 -0.455,-0.989 -0.978,-1.584 -0.262,-0.298 -0.58,-0.611 -0.96,-0.935 -0.12,0.536 -0.236,1.081 -0.347,1.633 -0.367,1.809 -0.688,3.693 -0.981,5.616 0.113,-0.056 0.227,-0.113 0.343,-0.176 m 5.547,-17.926 c 0.578,0.208 1.235,0.348 1.859,0.347 0.473,0 0.924,-0.077 1.336,-0.247 0.31,-0.128 0.601,-0.308 0.88,-0.565 0.417,-0.385 0.814,-0.955 1.132,-1.827 0.224,-0.616 0.402,-1.386 0.508,-2.322 -0.54,0.071 -1.053,0.188 -1.536,0.361 -0.747,0.267 -1.438,0.651 -2.088,1.151 -0.943,0.724 -1.801,1.704 -2.577,2.903 0.153,0.071 0.316,0.138 0.486,0.199 m 12.619,4.484 c 0.116,0.251 0.276,0.478 0.516,0.7 0.36,0.33 0.92,0.652 1.792,0.893 0.826,0.228 1.929,0.374 3.337,0.388 -0.243,-0.745 -0.496,-1.461 -0.764,-2.14 -0.9,-2.284 -1.947,-4.177 -3.144,-5.593 -0.108,-0.127 -0.218,-0.247 -0.328,-0.366 -0.047,0.096 -0.095,0.193 -0.144,0.293 -0.345,0.706 -0.728,1.516 -1.017,2.332 -0.291,0.816 -0.48,1.636 -0.478,2.322 0.001,0.452 0.076,0.839 0.23,1.171 m 6.909,10.75 c -0.859,0.71 -1.766,1.544 -2.421,2.392 -0.328,0.423 -0.592,0.847 -0.765,1.246 -0.175,0.401 -0.259,0.771 -0.259,1.114 0.002,0.336 0.074,0.655 0.269,1.018 0.147,0.272 0.37,0.567 0.701,0.882 0.496,0.473 1.238,0.984 2.281,1.494 0.68,0.332 1.489,0.664 2.434,0.989 -0.104,-0.834 -0.21,-1.662 -0.32,-2.475 -0.344,-2.542 -0.727,-4.978 -1.163,-7.271 -0.243,0.192 -0.497,0.395 -0.757,0.611 m 2.375,19.294 c -0.955,0.77 -1.95,1.655 -2.667,2.532 -0.358,0.438 -0.645,0.871 -0.831,1.269 -0.187,0.398 -0.271,0.752 -0.271,1.057 0.003,0.289 0.065,0.546 0.243,0.85 0.135,0.226 0.344,0.477 0.662,0.745 0.476,0.403 1.2,0.837 2.22,1.254 0.682,0.281 1.499,0.554 2.456,0.814 -0.218,-2.2 -0.43,-4.393 -0.643,-6.562 -0.087,-0.896 -0.176,-1.786 -0.265,-2.672 -0.291,0.225 -0.595,0.463 -0.904,0.713 m 2.465,15.334 c -0.977,0.972 -2.096,2.23 -2.94,3.483 -0.422,0.626 -0.775,1.249 -1.012,1.817 -0.238,0.568 -0.354,1.077 -0.352,1.458 0.002,0.29 0.057,0.501 0.159,0.688 0.078,0.14 0.188,0.275 0.37,0.418 0.272,0.212 0.72,0.434 1.404,0.595 0.682,0.162 1.59,0.262 2.74,0.262 0.179,0 0.365,-0.003 0.554,-0.008 -0.028,-0.075 -0.06,-0.146 -0.087,-0.222 -0.411,-1.137 -0.687,-2.391 -0.814,-3.713 -0.126,-1.323 -0.096,-2.715 0.081,-4.133 0.004,-0.033 0.01,-0.066 0.014,-0.099 -0.022,-0.198 -0.045,-0.397 -0.067,-0.596 -0.017,0.017 -0.033,0.033 -0.05,0.05 m 2.21,24.219 c -0.338,0.582 -0.632,1.184 -0.834,1.749 -0.203,0.565 -0.309,1.092 -0.307,1.508 0,0.299 0.05,0.537 0.136,0.728 0.066,0.145 0.151,0.27 0.281,0.395 0.193,0.184 0.502,0.376 1.009,0.525 0.505,0.148 1.202,0.246 2.106,0.246 0.348,0 0.726,-0.015 1.135,-0.045 -0.799,-2.253 -1.495,-4.65 -2.107,-7.16 -0.469,0.582 -0.983,1.301 -1.419,2.054 m 55.076,29.674 c -0.2,-0.81 -0.499,-1.559 -0.871,-2.223 -0.197,-0.352 -0.414,-0.681 -0.649,-0.981 -0.485,-0.618 -1.041,-1.118 -1.637,-1.482 -0.079,-0.049 -0.159,-0.095 -0.24,-0.139 -0.688,-0.37 -1.42,-0.567 -2.193,-0.568 -0.138,10e-4 -0.275,0.009 -0.41,0.022 -0.623,0.057 -1.218,0.242 -1.783,0.546 -0.297,0.16 -0.585,0.358 -0.861,0.584 0.843,-0.616 1.812,-0.912 2.791,-0.757 1.319,0.21 2.373,1.188 2.972,2.558 0.165,0.375 0.294,0.78 0.386,1.207 0.079,0.371 0.129,0.759 0.148,1.158 0.024,0.515 0.001,1.048 -0.086,1.591 -0.11,0.695 -0.311,1.344 -0.576,1.936 -0.281,-0.454 -0.756,-0.775 -1.31,-0.844 -0.074,-0.01 -0.15,-0.015 -0.227,-0.015 -0.998,0 -1.807,0.809 -1.807,1.807 0,0.671 0.366,1.254 0.909,1.566 0.08,0.046 0.163,0.087 0.25,0.12 -0.126,0.079 -0.255,0.148 -0.386,0.213 -0.671,0.33 -1.394,0.466 -2.123,0.351 -2.4,-0.381 -3.931,-3.298 -3.421,-6.514 0.084,-0.524 0.22,-1.021 0.394,-1.489 -0.468,1.114 -0.742,2.401 -0.742,3.779 -0.002,2.231 0.714,4.231 1.813,5.63 0.548,0.7 1.189,1.25 1.876,1.621 0.136,0.073 0.275,0.138 0.415,0.197 0.566,0.242 1.159,0.37 1.778,0.371 0.208,-0.001 0.412,-0.016 0.613,-0.044 0.018,-0.002 0.035,-0.006 0.052,-0.008 0.393,-0.06 0.775,-0.171 1.146,-0.333 0.129,-0.055 0.257,-0.115 0.382,-0.183 1.031,-0.555 1.958,-1.518 2.623,-2.777 0.666,-1.257 1.067,-2.801 1.066,-4.474 0.001,-0.849 -0.103,-1.664 -0.292,-2.426 m 2.962,-3.181 c 0.181,-0.136 0.343,-0.288 0.49,-0.459 -0.798,-0.079 -1.593,-0.174 -2.373,-0.281 -0.136,-0.019 -0.267,-0.042 -0.402,-0.062 0.19,0.284 0.371,0.577 0.534,0.885 0.103,0.195 0.2,0.395 0.293,0.599 0.543,-0.152 1.049,-0.375 1.458,-0.682 M 2.23,7.939 v 0 c 0,0.635 -0.103,1.223 -0.287,1.753 -0.321,0.93 -0.886,1.671 -1.521,2.24 -0.939,0.842 -2.029,1.338 -2.898,1.642 10e-4,0.123 -0.002,0.255 -0.009,0.403 -0.001,0.128 -0.027,0.26 -0.053,0.403 -0.032,0.14 -0.052,0.293 -0.106,0.445 -0.05,0.154 -0.113,0.311 -0.177,0.478 -0.084,0.156 -0.171,0.323 -0.271,0.488 -0.113,0.158 -0.233,0.321 -0.371,0.475 -0.152,0.142 -0.3,0.299 -0.483,0.417 -0.18,0.122 -0.367,0.239 -0.574,0.319 -0.199,0.099 -0.416,0.15 -0.627,0.211 -0.428,0.098 -0.859,0.157 -1.278,0.165 -0.421,0.02 -0.83,-0.013 -1.223,-0.066 -0.394,-0.052 -0.769,-0.143 -1.123,-0.244 -0.353,-0.103 -0.688,-0.215 -0.996,-0.34 -0.309,-0.124 -0.594,-0.252 -0.853,-0.377 -0.423,-0.207 -0.771,-0.403 -1.038,-0.567 -0.169,0.102 -0.346,0.203 -0.541,0.299 -0.262,0.141 -0.544,0.287 -0.851,0.412 -0.306,0.125 -0.627,0.278 -0.972,0.39 -0.343,0.118 -0.704,0.243 -1.081,0.352 -0.378,0.094 -0.77,0.211 -1.177,0.294 -0.812,0.177 -1.679,0.31 -2.577,0.371 -0.899,0.054 -1.829,0.05 -2.766,-0.011 -0.25,-0.012 -0.501,-0.028 -0.753,-0.046 -0.201,0.442 -0.451,0.839 -0.74,1.185 -0.413,0.495 -0.897,0.886 -1.405,1.189 -0.515,0.306 -1.053,0.523 -1.588,0.681 0.206,0.889 0.319,1.826 0.319,2.794 -0.002,2.707 -0.854,5.177 -2.29,7.014 -0.217,0.277 -0.45,0.538 -0.693,0.784 0.018,0.13 0.033,0.268 0.047,0.415 0.04,0.339 0.029,0.725 0.008,1.149 -0.019,0.213 -0.052,0.433 -0.082,0.664 -0.044,0.228 -0.102,0.468 -0.168,0.711 -0.07,0.244 -0.169,0.493 -0.271,0.745 -0.063,0.124 -0.128,0.249 -0.198,0.373 -0.066,0.126 -0.141,0.249 -0.232,0.37 -0.089,0.119 -0.179,0.24 -0.274,0.357 -0.106,0.115 -0.219,0.223 -0.332,0.332 -0.107,0.113 -0.24,0.209 -0.37,0.305 -0.128,0.097 -0.26,0.19 -0.407,0.268 -0.563,0.334 -1.207,0.553 -1.84,0.637 -0.636,0.085 -1.256,0.036 -1.825,-0.086 -0.57,-0.12 -1.094,-0.32 -1.566,-0.553 -0.253,-0.127 -0.493,-0.26 -0.721,-0.398 -0.3,0.283 -0.651,0.606 -1.071,0.951 -0.997,0.821 -2.35,1.741 -4.157,2.445 -1.808,0.706 -4.066,1.195 -6.859,1.194 -1.486,0 -3.124,-0.14 -4.928,-0.452 -0.242,0.116 -0.49,0.227 -0.743,0.333 -0.354,0.128 -0.706,0.258 -1.08,0.359 -0.738,0.216 -1.527,0.36 -2.332,0.425 -0.805,0.065 -1.654,-0.01 -2.442,-0.274 -0.792,-0.255 -1.49,-0.72 -2.024,-1.258 -0.539,-0.539 -0.936,-1.138 -1.231,-1.725 -0.164,-0.327 -0.301,-0.648 -0.421,-0.96 -0.318,-0.131 -0.636,-0.261 -0.96,-0.4 -7.146,-3.057 -11.567,-6.271 -14.23,-9.494 -1.33,-1.609 -2.213,-3.222 -2.756,-4.787 -0.543,-1.566 -0.746,-3.08 -0.746,-4.486 10e-4,-1.643 0.274,-3.141 0.59,-4.438 0.245,-1.004 0.514,-1.892 0.708,-2.619 -10e-4,-0.001 -0.002,-0.002 -0.003,-0.003 -0.621,-0.764 -1.192,-1.633 -1.642,-2.605 -0.221,-0.489 -0.424,-0.995 -0.571,-1.531 -0.153,-0.53 -0.263,-1.087 -0.299,-1.654 -0.099,-1.134 0.148,-2.309 0.64,-3.293 0.485,-0.998 1.208,-1.787 1.946,-2.438 0.496,-0.425 1.007,-0.789 1.519,-1.11 -0.316,0.017 -0.624,0.029 -0.916,0.029 -0.944,-10e-4 -1.76,-0.088 -2.474,-0.266 -0.535,-0.133 -1.013,-0.319 -1.434,-0.563 -0.632,-0.363 -1.13,-0.874 -1.438,-1.462 -0.311,-0.588 -0.432,-1.228 -0.431,-1.848 0.003,-0.957 0.268,-1.889 0.641,-2.785 0.563,-1.341 1.389,-2.608 2.166,-3.619 0.389,-0.505 0.766,-0.943 1.101,-1.294 0.098,-0.102 0.192,-0.195 0.284,-0.283 -0.594,-2.753 -1.103,-5.618 -1.551,-8.554 -0.381,0.016 -0.747,0.025 -1.096,0.025 -1.136,0 -2.108,-0.086 -2.948,-0.255 -0.631,-0.127 -1.187,-0.302 -1.679,-0.534 -0.369,-0.173 -0.701,-0.379 -0.992,-0.619 -0.437,-0.36 -0.777,-0.805 -0.992,-1.291 -0.216,-0.487 -0.307,-1.004 -0.306,-1.509 0,-0.531 0.096,-1.052 0.25,-1.563 0.272,-0.893 0.723,-1.763 1.261,-2.607 0.808,-1.265 1.819,-2.469 2.779,-3.487 0.48,-0.508 0.947,-0.969 1.371,-1.364 0.227,-0.211 0.44,-0.402 0.638,-0.573 -0.056,-0.532 -0.11,-1.064 -0.164,-1.596 -1.202,-0.295 -2.246,-0.614 -3.148,-0.959 -1.64,-0.63 -2.829,-1.337 -3.66,-2.186 -0.413,-0.425 -0.733,-0.889 -0.945,-1.383 -0.213,-0.493 -0.314,-1.012 -0.313,-1.516 0,-0.545 0.113,-1.069 0.295,-1.559 0.32,-0.859 0.841,-1.628 1.443,-2.342 0.905,-1.068 2.007,-2.016 3.008,-2.819 0.501,-0.4 0.975,-0.763 1.382,-1.077 0.191,-0.147 0.366,-0.283 0.522,-0.406 -0.154,-1.473 -0.312,-2.927 -0.477,-4.357 -1.269,-0.393 -2.364,-0.804 -3.305,-1.236 -1.671,-0.769 -2.871,-1.598 -3.693,-2.538 -0.409,-0.47 -0.72,-0.97 -0.924,-1.489 -0.206,-0.52 -0.302,-1.056 -0.302,-1.577 0,-0.543 0.102,-1.066 0.27,-1.557 0.295,-0.861 0.782,-1.628 1.344,-2.329 0.843,-1.049 1.865,-1.954 2.774,-2.702 0.454,-0.373 0.88,-0.705 1.236,-0.986 0.116,-0.091 0.221,-0.174 0.321,-0.254 -0.263,-1.202 -0.546,-2.353 -0.847,-3.452 -0.152,0.003 -0.304,0.006 -0.451,0.006 -1.478,0 -2.718,-0.127 -3.769,-0.373 -0.787,-0.185 -1.47,-0.437 -2.057,-0.761 -0.879,-0.481 -1.543,-1.142 -1.951,-1.899 -0.411,-0.756 -0.564,-1.577 -0.564,-2.366 0.001,-0.818 0.158,-1.615 0.38,-2.373 0.335,-1.136 0.822,-2.191 1.24,-3.055 0.192,-0.396 0.368,-0.749 0.507,-1.041 -0.622,-0.413 -1.279,-0.734 -1.981,-0.954 -0.825,-0.256 -1.595,-0.422 -2.316,-0.508 -0.1,1.019 -0.277,1.914 -0.525,2.701 -0.253,0.802 -0.581,1.492 -0.976,2.077 -0.591,0.877 -1.344,1.509 -2.152,1.895 -0.809,0.389 -1.658,0.537 -2.462,0.537 -0.948,-0.001 -1.84,-0.201 -2.618,-0.48 -0.296,-0.107 -0.569,-0.227 -0.829,-0.352 -0.939,1.911 -1.725,4.183 -2.39,6.694 1.18,0.874 2.056,1.743 2.671,2.626 0.361,0.519 0.63,1.044 0.809,1.571 0.179,0.526 0.265,1.055 0.265,1.566 0,0.53 -0.092,1.04 -0.252,1.511 -0.281,0.828 -0.759,1.537 -1.315,2.143 -0.838,0.909 -1.857,1.599 -2.82,2.105 -0.482,0.251 -0.951,0.455 -1.383,0.611 -0.089,0.032 -0.175,0.06 -0.261,0.088 -0.219,1.583 -0.422,3.18 -0.619,4.775 1.426,1.082 2.461,2.11 3.175,3.124 0.4,0.569 0.698,1.135 0.897,1.7 0.198,0.564 0.295,1.127 0.295,1.671 0,0.53 -0.092,1.039 -0.253,1.509 -0.281,0.825 -0.761,1.526 -1.311,2.129 -0.828,0.903 -1.828,1.604 -2.744,2.176 -0.458,0.285 -0.896,0.535 -1.278,0.753 -0.182,0.103 -0.35,0.199 -0.502,0.286 -0.274,1.757 -0.573,3.43 -0.914,4.986 1.072,0.915 1.848,1.722 2.386,2.475 0.281,0.395 0.498,0.777 0.652,1.163 0.152,0.385 0.241,0.778 0.241,1.175 0,0.313 -0.057,0.625 -0.17,0.909 -0.098,0.248 -0.236,0.473 -0.396,0.665 -0.282,0.339 -0.623,0.581 -0.977,0.766 -0.532,0.275 -1.106,0.432 -1.695,0.533 -0.588,0.1 -1.192,0.139 -1.774,0.139 -0.358,0 -0.705,-0.016 -1.036,-0.043 -0.331,0.559 -0.652,1.092 -0.965,1.599 0.644,0.878 1.129,1.656 1.475,2.358 0.213,0.434 0.375,0.841 0.486,1.233 0.111,0.391 0.172,0.769 0.172,1.14 0.002,0.498 -0.12,0.993 -0.371,1.407 -0.186,0.31 -0.435,0.565 -0.706,0.758 -0.408,0.29 -0.854,0.451 -1.301,0.55 -0.449,0.097 -0.905,0.132 -1.364,0.132 -0.885,-0.001 -1.781,-0.131 -2.575,-0.294 -0.502,-0.103 -0.959,-0.22 -1.341,-0.331 -0.262,0.182 -0.527,0.337 -0.805,0.453 -0.325,0.136 -0.675,0.225 -1.046,0.225 -0.289,10e-4 -0.589,-0.058 -0.86,-0.176 -0.239,-0.103 -0.453,-0.249 -0.634,-0.417 -0.318,-0.297 -0.539,-0.653 -0.712,-1.038 -0.256,-0.581 -0.412,-1.248 -0.518,-2.034 -0.104,-0.785 -0.152,-1.688 -0.152,-2.721 0,-1.469 0.098,-3.202 0.29,-5.202 0.359,-3.739 0.488,-7.879 0.488,-12.158 0,-5.189 -0.189,-10.583 -0.381,-15.732 -0.193,-5.149 -0.388,-10.052 -0.397,-14.276 -0.004,-1.623 -0.093,-3.785 -0.093,-6.29 0,-3.846 0.21,-8.511 1.281,-13.415 0.804,-3.678 2.093,-7.493 4.148,-11.187 3.078,-5.543 7.89,-10.805 15.26,-14.891 4.208,-2.335 9.245,-4.289 15.268,-5.721 -0.303,-0.32 -0.607,-0.644 -0.911,-0.975 -0.656,-0.717 -1.311,-1.463 -1.942,-2.263 -0.471,-0.601 -0.929,-1.234 -1.33,-1.936 -0.134,-0.235 -0.261,-0.476 -0.381,-0.727 -0.233,-0.505 -0.433,-1.054 -0.524,-1.663 -0.046,-0.303 -0.059,-0.624 -0.033,-0.946 0.013,-0.161 0.036,-0.323 0.069,-0.483 0.033,-0.16 0.076,-0.318 0.131,-0.473 0.053,-0.157 0.117,-0.307 0.188,-0.452 0.072,-0.145 0.152,-0.284 0.239,-0.417 0.173,-0.266 0.371,-0.508 0.579,-0.725 0.419,-0.437 0.88,-0.792 1.352,-1.091 0.217,-0.141 0.421,-0.284 0.649,-0.423 l 0.711,-0.413 c 0.24,-0.144 0.472,-0.258 0.707,-0.381 l 0.704,-0.364 c 0.577,-0.276 1.156,-0.544 1.736,-0.799 0.371,-0.164 0.743,-0.323 1.116,-0.475 0.358,-0.147 0.717,-0.289 1.076,-0.426 1.078,-0.411 2.158,-0.776 3.236,-1.093 0.479,-0.141 0.957,-0.273 1.434,-0.395 1.911,-0.474 3.798,-0.806 5.631,-0.931 0.687,-0.048 1.366,-0.066 2.036,-0.047 0.223,0.006 0.445,0.017 0.666,0.032 0.222,0.02 0.442,0.04 0.659,0.06 l 0.163,0.015 0.02,0.002 c 0,0 0.005,0.001 0.013,0.002 0.008,10e-4 0.019,0.002 0.028,0.003 0.01,0.001 0.019,0.002 0.023,0.003 0.005,10e-4 0.005,10e-4 -0.003,0 l 0.037,0.007 0.075,0.013 0.297,0.054 0.074,0.013 0.093,0.023 0.19,0.049 c 0.062,0.018 0.125,0.033 0.187,0.05 0.062,0.016 0.124,0.035 0.182,0.06 0.118,0.047 0.235,0.093 0.352,0.14 0.117,0.051 0.236,0.125 0.351,0.189 0.08,0.047 0.159,0.103 0.237,0.162 0.015,0.012 0.031,0.024 0.046,0.036 0.161,0.128 0.313,0.278 0.443,0.447 0.005,0.006 0.01,0.012 0.015,0.018 0.067,0.089 0.128,0.182 0.182,0.279 v 0 c 0.046,-0.029 0.094,-0.057 0.145,-0.086 0.115,-0.065 0.242,-0.136 0.38,-0.213 0.141,-0.07 0.295,-0.145 0.461,-0.22 0.167,-0.074 0.347,-0.148 0.54,-0.219 0.194,-0.071 0.4,-0.139 0.621,-0.2 0.22,-0.062 0.454,-0.118 0.703,-0.162 0.25,-0.044 0.514,-0.077 0.795,-0.093 0.56,-0.031 1.204,-0.005 1.934,0.318 0.359,0.168 0.75,0.439 1.038,0.845 0.222,0.3 0.356,0.656 0.417,0.997 0.021,0.113 0.033,0.225 0.038,0.333 0.022,0.436 -0.052,0.818 -0.153,1.161 -0.044,0.143 -0.094,0.278 -0.145,0.412 -0.049,0.126 -0.101,0.247 -0.155,0.366 0.053,-0.012 0.109,-0.023 0.167,-0.035 0.048,-0.01 0.097,-0.019 0.147,-0.028 0.047,-0.008 0.094,-0.015 0.143,-0.022 0.068,-0.01 0.14,-0.017 0.212,-0.024 0.041,-0.004 0.08,-0.008 0.122,-0.011 0.119,-0.007 0.243,-0.011 0.374,-0.007 0.214,0.006 0.445,0.028 0.697,0.091 0.083,0.02 0.17,0.045 0.259,0.076 0.086,0.031 0.177,0.069 0.269,0.115 0.231,0.116 0.47,0.285 0.672,0.522 0.041,0.048 0.079,0.098 0.117,0.151 0.305,0.42 0.42,0.955 0.425,1.414 0.003,0.473 -0.091,0.881 -0.21,1.282 -0.032,0.097 -0.064,0.194 -0.098,0.292 -0.034,0.098 -0.071,0.196 -0.116,0.293 -0.043,0.098 -0.086,0.196 -0.129,0.294 -0.04,0.085 -0.079,0.161 -0.12,0.241 l -0.062,0.119 -0.03,0.06 -0.016,0.03 -0.008,0.015 -0.025,0.043 -0.166,0.269 c -0.108,0.183 -0.235,0.354 -0.367,0.524 -0.53,0.677 -1.203,1.257 -1.937,1.718 -0.732,0.465 -1.513,0.836 -2.302,1.141 -0.185,0.071 -0.371,0.137 -0.557,0.2 -0.064,0.022 -0.128,0.041 -0.192,0.062 -0.123,0.04 -0.245,0.079 -0.368,0.115 -0.078,0.023 -0.156,0.044 -0.233,0.066 -0.109,0.03 -0.217,0.059 -0.326,0.087 -0.085,0.022 -0.17,0.043 -0.255,0.063 -0.1,0.024 -0.199,0.046 -0.299,0.068 -0.091,0.02 -0.181,0.039 -0.272,0.057 -0.093,0.019 -0.185,0.036 -0.278,0.053 -0.095,0.017 -0.19,0.035 -0.285,0.05 -0.082,0.014 -0.163,0.025 -0.245,0.037 -0.271,0.04 -0.54,0.075 -0.807,0.102 0.027,0.027 0.052,0.051 0.08,0.079 0.256,0.237 0.525,0.526 0.811,0.846 0.103,0 0.208,-0.003 0.31,-0.003 6.591,0 12.415,0.735 17.566,2.035 -0.051,-0.189 -0.097,-0.381 -0.127,-0.583 -0.091,-0.606 -0.051,-1.281 0.167,-1.902 0.213,-0.625 0.591,-1.16 1.007,-1.593 0.418,-0.438 0.88,-0.792 1.352,-1.092 0.217,-0.141 0.42,-0.283 0.649,-0.423 l 0.711,-0.412 c 0.239,-0.144 0.472,-0.259 0.707,-0.382 l 0.703,-0.363 c 0.947,-0.454 1.897,-0.887 2.853,-1.274 1.91,-0.784 3.837,-1.427 5.745,-1.914 1.911,-0.475 3.799,-0.807 5.631,-0.931 0.917,-0.064 1.818,-0.076 2.703,-0.016 0.222,0.02 0.441,0.041 0.659,0.061 l 0.162,0.015 0.021,0.002 c -0.002,0 0.091,0.011 0.06,0.007 l 0.038,0.007 0.074,0.014 0.297,0.053 0.074,0.014 0.094,0.023 0.189,0.048 c 0.125,0.036 0.253,0.061 0.37,0.11 0.118,0.047 0.235,0.094 0.352,0.14 0.116,0.052 0.236,0.126 0.35,0.189 0.356,0.211 0.703,0.544 0.924,0.942 0.045,-0.028 0.093,-0.057 0.145,-0.086 0.115,-0.064 0.241,-0.135 0.38,-0.213 0.141,-0.07 0.294,-0.145 0.461,-0.22 0.333,-0.147 0.719,-0.296 1.16,-0.418 0.44,-0.126 0.937,-0.223 1.499,-0.255 0.56,-0.031 1.204,-0.005 1.934,0.317 0.359,0.169 0.75,0.44 1.037,0.845 0.296,0.401 0.436,0.9 0.456,1.33 0.021,0.436 -0.053,0.819 -0.153,1.161 -0.087,0.28 -0.189,0.535 -0.301,0.779 0.321,-0.074 0.701,-0.142 1.166,-0.127 0.284,0.007 0.6,0.044 0.955,0.167 0.347,0.122 0.761,0.363 1.058,0.788 0.305,0.42 0.421,0.954 0.426,1.414 0.003,0.473 -0.091,0.881 -0.21,1.282 -0.066,0.192 -0.125,0.39 -0.214,0.585 -0.043,0.097 -0.086,0.195 -0.13,0.294 -0.04,0.085 -0.078,0.16 -0.12,0.24 l -0.061,0.119 -0.031,0.06 -0.015,0.03 -0.008,0.015 -0.025,0.043 -0.167,0.269 c -0.107,0.184 -0.234,0.355 -0.367,0.524 -0.53,0.677 -1.203,1.257 -1.936,1.718 -0.733,0.466 -1.513,0.837 -2.302,1.141 -1.366,0.525 -2.774,0.827 -4.117,0.961 0.027,0.027 0.051,0.051 0.079,0.078 0.466,0.43 0.966,1.023 1.552,1.686 0.608,0.643 1.192,1.463 1.853,2.33 0.081,0.11 0.169,0.216 0.246,0.333 0.076,0.117 0.152,0.236 0.229,0.356 0.153,0.24 0.31,0.484 0.469,0.733 0.158,0.248 0.319,0.501 0.483,0.758 0.142,0.27 0.288,0.544 0.434,0.822 0.147,0.277 0.295,0.558 0.446,0.843 0.079,0.14 0.145,0.288 0.206,0.44 0.064,0.15 0.128,0.302 0.192,0.454 0.129,0.303 0.258,0.611 0.389,0.921 l 0.098,0.232 0.079,0.243 c 0.052,0.162 0.104,0.324 0.157,0.488 0.105,0.326 0.211,0.655 0.317,0.986 0.097,0.334 0.161,0.68 0.243,1.023 0.072,0.345 0.169,0.686 0.221,1.039 0.048,0.353 0.096,0.707 0.144,1.063 l 0.072,0.534 0.028,0.541 c 0.017,0.36 0.034,0.721 0.052,1.084 0.006,0.361 -0.019,0.724 -0.028,1.086 -0.014,0.363 -0.015,0.726 -0.068,1.085 l -0.122,1.079 c -0.042,0.359 -0.127,0.71 -0.189,1.064 -0.113,0.711 -0.321,1.397 -0.495,2.082 -0.136,0.44 -0.28,0.873 -0.43,1.302 0.942,2.252 1.704,4.481 2.31,6.628 1.778,6.301 2.259,11.889 2.26,15.337 -0.001,3.619 -0.574,8.454 -1.651,13.976 -1.013,5.19 -2.474,10.978 -4.337,16.874 2.148,1.286 4.189,2.848 5.919,4.689 0.247,0.263 0.488,0.532 0.722,0.806 0.715,0.841 1.343,1.716 1.882,2.608 0.54,0.892 0.992,1.8 1.356,2.705 0.726,1.809 1.103,3.603 1.105,5.249 -10e-4,1.097 -0.169,2.131 -0.54,3.056 -0.12,0.3 -0.266,0.587 -0.432,0.86 -0.345,0.567 -0.788,1.069 -1.335,1.462 -0.138,0.099 -0.295,0.215 -0.47,0.346 -0.175,0.131 -0.368,0.277 -0.577,0.437 -0.694,0.533 -1.564,1.22 -2.538,2.009 -2.34,1.894 -5.3,4.388 -8.016,6.843 -1.357,1.228 -2.654,2.446 -3.779,3.571 -0.474,0.474 -0.915,0.931 -1.32,1.365 0.847,0.307 1.715,0.642 2.6,1.002 1.052,-0.35 2.336,-0.586 3.875,-0.584 1.847,0 4.063,0.341 6.696,1.195 0.572,-0.326 1.194,-0.63 1.865,-0.894 1.379,-0.541 2.966,-0.906 4.72,-0.906 1.985,-0.002 4.176,0.471 6.488,1.633 2.188,1.098 4.486,2.808 6.874,5.304 0.156,-0.056 0.331,-0.094 0.519,-0.094 0.217,-10e-4 0.448,0.053 0.649,0.157 0.176,0.09 0.328,0.213 0.455,0.351 0.223,0.244 0.378,0.531 0.508,0.867 0.192,0.504 0.327,1.13 0.422,1.945 0.095,0.813 0.146,1.814 0.146,3.05 0,0.591 -0.012,1.238 -0.037,1.94 0.318,1.025 0.478,2.161 0.48,3.424 v 0.001 0.009 z" /></g><g
           transform="translate(1061.3397,1082.7444)"
           id="g64"><path
             id="path66"
             style="fill:#000000;fill-opacity:1;fill-rule:nonzero;stroke:none"
             d="M 0,0 H 0.001 L 0.026,0.165 Z" /></g><g
           transform="translate(1051.3148,1076.6825)"
           id="g68"><path
             id="path70"
             style="fill:#000000;fill-opacity:1;fill-rule:nonzero;stroke:none"
             d="M 0,0 C 0.167,0.163 0.391,0.405 0.655,0.696 0.917,0.987 1.221,1.327 1.547,1.678 1.877,2.022 2.224,2.391 2.592,2.677 2.773,2.822 2.969,2.931 3.14,2.987 3.314,3.045 3.435,3.035 3.48,3.026 3.524,3.02 3.581,3.021 3.699,2.967 3.752,2.932 3.817,2.905 3.876,2.849 3.942,2.808 4,2.749 4.063,2.693 4.126,2.64 4.187,2.582 4.243,2.521 4.302,2.462 4.361,2.41 4.415,2.352 4.52,2.238 4.625,2.141 4.708,2.054 4.874,1.881 4.996,1.784 4.996,1.784 l 0.133,0.044 c 0,0 0.035,0.147 0.05,0.402 C 5.191,2.359 5.177,2.511 5.163,2.69 5.16,2.78 5.132,2.872 5.114,2.973 5.093,3.072 5.066,3.178 5.02,3.287 4.983,3.398 4.933,3.51 4.862,3.629 4.8,3.746 4.709,3.869 4.601,3.988 4.553,4.048 4.477,4.106 4.41,4.163 4.344,4.221 4.263,4.274 4.171,4.318 4.084,4.367 3.99,4.409 3.884,4.433 3.78,4.464 3.674,4.483 3.565,4.485 3.122,4.506 2.749,4.322 2.484,4.126 2.214,3.925 2.004,3.704 1.815,3.487 1.435,3.052 1.137,2.604 0.886,2.17 0.631,1.74 0.42,1.332 0.238,0.985 0.058,0.64 -0.093,0.352 -0.198,0.15 -0.303,-0.05 -0.372,-0.164 -0.372,-0.164 l 0.11,-0.087 c 0,0 0.097,0.086 0.262,0.251" /></g><g
           transform="translate(1008.0568,1102.1985)"
           id="g72"><path
             id="path74"
             style="fill:#000000;fill-opacity:1;fill-rule:nonzero;stroke:none"
             d="M 0,0 C 0.689,0.371 1.421,0.567 2.193,0.568 2.966,0.567 3.698,0.371 4.387,0 c 1.03,-0.555 1.957,-1.518 2.623,-2.777 0.665,-1.257 1.066,-2.8 1.065,-4.474 0.002,-2.231 -0.714,-4.231 -1.812,-5.63 -0.549,-0.7 -1.189,-1.25 -1.876,-1.62 -0.689,-0.371 -1.421,-0.568 -2.194,-0.568 -0.772,0 -1.504,0.197 -2.193,0.568 -0.297,0.16 -0.585,0.358 -0.861,0.583 0.843,-0.616 1.812,-0.912 2.791,-0.756 2.4,0.381 3.931,3.297 3.421,6.513 C 5.24,-7.465 5.039,-6.817 4.774,-6.225 4.456,-6.74 3.887,-7.084 3.237,-7.084 c -0.998,0 -1.807,0.809 -1.807,1.808 0,0.769 0.482,1.425 1.16,1.685 -0.774,0.484 -1.639,0.702 -2.51,0.564 -2.4,-0.381 -3.931,-3.297 -3.421,-6.514 0.084,-0.524 0.221,-1.021 0.394,-1.489 -0.467,1.114 -0.742,2.401 -0.742,3.779 -0.002,2.232 0.714,4.231 1.813,5.63 C -1.328,-0.92 -0.687,-0.371 0,0 m -1.066,-16.477 c 0.987,-0.534 2.098,-0.838 3.259,-0.837 1.162,-0.001 2.273,0.303 3.26,0.837 1.484,0.803 2.696,2.107 3.541,3.702 0.844,1.597 1.326,3.494 1.326,5.524 -10e-4,2.707 -0.854,5.178 -2.29,7.015 C 7.311,0.682 6.442,1.441 5.453,1.975 4.466,2.51 3.355,2.814 2.193,2.813 1.032,2.814 -0.079,2.51 -1.066,1.975 -2.55,1.173 -3.762,-0.131 -4.607,-1.727 -5.452,-3.323 -5.933,-5.22 -5.934,-7.251 c 0.002,-2.706 0.854,-5.177 2.291,-7.014 0.719,-0.918 1.588,-1.678 2.577,-2.212" /></g><g
           transform="translate(1054.0453,1077.5109)"
           id="g76"><path
             id="path78"
             style="fill:#000000;fill-opacity:1;fill-rule:nonzero;stroke:none"
             d="m 0,0 c -0.198,0 -0.358,-0.464 -0.358,-1.035 0,-0.572 0.16,-1.036 0.358,-1.036 0.198,0 0.358,0.464 0.358,1.036 C 0.358,-0.464 0.198,0 0,0" /></g></g></g></g></svg>